<?xml version="1.0" encoding="UTF-8" standalone="no"?>
<!DOCTYPE svg PUBLIC "-//W3C//DTD SVG 1.1//EN" "http://www.w3.org/Graphics/SVG/1.1/DTD/svg11.dtd">
<svg xmlns="http://www.w3.org/2000/svg" xmlns:xlink="http://www.w3.org/1999/xlink" version="1.1" width="1920pt" height="1080pt" viewBox="0 0 1920 1080">
<g enable-background="new">
<g>
<g id="Layer-1" data-name="Layer 1">
<path transform="matrix(1,0,0,-1,0,1080)" d="M 0 0 L 1916.5 0 L 1916.5 755.274 L 0 755.274 Z " fill="#e5e5e5"/>
<symbol id="font_0_72">
<path d="M .6380001 .66 L .6380001 0 L .56200006 0 L .56200006 .41500003 L .57100006 .58900007 L .57000008 .58900007 L .35300002 0 L .285 0 L .06800001 .58900007 L .06700001 .58900007 L .07600001 .41500003 L .07600001 0 L 0 0 L 0 .66 L .123 .66 L .268 .259 L .31800003 .094000007 L .32000003 .094000007 L .37100003 .25800003 L .51500007 .66 L .6380001 .66 Z "/>
</symbol>
<symbol id="font_0_13c">
<path d="M .324 .333 C .324 .37033335 .314 .39900003 .29400004 .419 C .27400003 .43966667 .24566667 .45000003 .209 .45000003 C .17433334 .45000003 .145 .44233335 .12100001 .42700003 C .097 .41233335 .07933334 .38833333 .068 .35500003 L .0029999987 .395 C .016333335 .43233336 .041000006 .46233336 .07700001 .485 C .113 .5083334 .15766667 .52000007 .21100001 .52000007 C .247 .52000007 .27966667 .5136667 .30900003 .50100007 C .33833338 .489 .36133338 .47033335 .37800003 .44500003 C .39533339 .42033337 .40400005 .38833336 .40400005 .349 L .40400005 .107 C .40400005 .083000008 .41666673 .071 .44200004 .071 C .4546667 .071 .467 .07266667 .47900004 .076 L .47500003 .013 C .4616667 .006333334 .4443334 .0030000006 .42300005 .0030000006 C .40366666 .0030000006 .38633333 .0066666675 .371 .014 C .35566665 .021333335 .34366668 .032333334 .33500005 .047000003 C .32633338 .062333336 .32200004 .08133333 .32200004 .104 L .32200004 .114 L .342 .111 C .33400003 .085 .32033337 .06366667 .301 .047000003 C .28166668 .031000004 .26000003 .019000002 .23600002 .011000001 C .21200001 .003666667 .18833333 0 .165 0 C .13566667 0 .10833334 .0050000005 .083000008 .015000001 C .05766667 .025 .037333337 .040000004 .022 .060000004 C .007333333 .08066667 0 .106000009 0 .136 C 0 .17333335 .0123333339 .20400001 .037 .22800002 C .062333336 .25266669 .097333338 .26933334 .142 .278 L .34000004 .317 L .34000004 .25100003 L .179 .21800001 C .14633334 .21133335 .12200001 .20200002 .106000009 .19000001 C .09 .17800002 .082 .16133334 .082 .14000002 C .082 .11933335 .09 .10233334 .106000009 .089 C .122666668 .07633334 .14600002 .07 .17600002 .07 C .19533335 .07 .21366668 .072333339 .23100002 .077 C .24900002 .082333337 .26500003 .09 .27899999 .1 C .293 .11066667 .30400003 .123666677 .31200005 .13900002 C .32000003 .15500002 .324 .17366667 .324 .19500001 L .324 .333 Z "/>
</symbol>
<symbol id="font_0_1f5">
<path d="M .18 .652 L .18 .14800002 C .18 .123333338 .18699999 .105 .201 .093 C .21500002 .081 .23300003 .075 .25500003 .075 C .27433337 .075 .29100005 .07833334 .30500005 .085 C .31900005 .09166667 .3316667 .100666668 .34300003 .112 L .37100003 .045 C .35566668 .031000002 .33733336 .020000002 .316 .012000001 C .29533337 .004 .27133338 0 .244 0 C .21866668 0 .19500001 .0043333338 .17300001 .013 C .15100001 .022333334 .13333334 .036666674 .120000008 .056000007 C .10733333 .076000008 .100666668 .102 .10000001 .134 L .10000001 .63 L .18 .652 M .36200003 .51 L .36200003 .441 L 0 .441 L 0 .51 L .36200003 .51 Z "/>
</symbol>
<symbol id="font_0_158">
<path d="M .24200002 .52000007 C .27666668 .52000007 .30700005 .51466676 .33300004 .504 C .3596667 .49333335 .38266669 .47800002 .402 .458 C .42133335 .438 .43700005 .41433335 .44900004 .387 L .37300004 .351 C .3623334 .38300003 .34600006 .40733338 .32400004 .42400003 C .3026667 .44133339 .2746667 .45000003 .24000001 .45000003 C .20666667 .45000003 .17800002 .44233335 .15400002 .42700003 C .13000001 .41233335 .11166668 .3906667 .09900001 .36200003 C .08633334 .334 .08000001 .29999999 .08000001 .26 C .08000001 .22066669 .08633334 .18666668 .09900001 .158 C .11166668 .12933333 .13000001 .10733333 .15400002 .092 C .17800002 .07733333 .20666667 .07 .24000001 .07 C .266 .07 .28833334 .074 .307 .082 C .32633338 .09 .342 .10166667 .35400004 .117000009 C .3666667 .13233336 .37533335 .15100001 .38000003 .17300001 L .45400004 .14700002 C .44266669 .11633334 .42700006 .09 .40700004 .068 C .3876667 .046000005 .364 .029 .33600004 .017 C .30866669 .005666667 .27733336 0 .24200002 0 C .19533335 0 .15366668 .010333334 .11700001 .031000004 C .080333348 .051666667 .051666667 .08133334 .031 .120000008 C .010333333 .15933335 0 .20600002 0 .26 C 0 .314 .010333333 .36033336 .031 .39900003 C .051666667 .43833337 .080333348 .46833334 .11700001 .48900003 C .15366668 .5096667 .19533335 .52000007 .24200002 .52000007 Z "/>
</symbol>
<symbol id="font_0_189">
<path d="M 0 0 L 0 .73 L .080000009 .73 L .080000009 .425 C .09733334 .455 .12033335 .4766667 .14900002 .49 C .17766671 .5033334 .20900004 .51000007 .24300003 .51000007 C .279 .51000007 .3116667 .503 .34100003 .48900003 C .37033335 .47566668 .39366666 .455 .411 .42700003 C .42900003 .39900003 .43800006 .36333335 .43800003 .32000003 L .43800003 0 L .35800005 0 L .35800005 .29200004 C .35800005 .34733335 .34600006 .3856667 .32200004 .407 C .2986667 .42900003 .2696667 .44000004 .23500002 .44000004 C .21100003 .44000004 .18700004 .43433336 .16300002 .423 C .13900002 .41166667 .11900001 .393 .10300001 .367 C .08766667 .3416667 .080000009 .3076667 .080000009 .26500003 L .080000009 0 L 0 0 Z "/>
</symbol>
<symbol id="font_0_167">
<path d="M .24400002 0 C .19666668 0 .15433334 .010333334 .11700001 .031000004 C .080333348 .051666667 .051666667 .08133334 .031 .120000008 C .010333333 .15933335 0 .20600002 0 .26 C 0 .314 .010333333 .36033336 .031 .39900003 C .051666667 .43833337 .080000009 .46833334 .11600001 .48900003 C .15200001 .5096667 .19300002 .52000007 .23900002 .52000007 C .28566668 .52000007 .32533337 .51000007 .358 .49 C .39133335 .47000004 .41666667 .44266669 .43400003 .40800003 C .45133338 .37399999 .46 .33566667 .46 .293 C .46 .28166668 .4596667 .27133335 .45900003 .262 C .45833338 .25266669 .45733337 .24433334 .456 .23700002 L .052000006 .23700002 L .052000006 .308 L .42100004 .308 L .38000003 .3 C .38000003 .34800003 .3666667 .385 .34000004 .411 C .31400005 .43700005 .2796667 .45000003 .23700002 .45000003 C .20433335 .45000003 .176 .44233335 .15200001 .42700003 C .12866669 .41233335 .110333349 .3906667 .097 .36200003 C .08433334 .334 .07800001 .29999999 .07800001 .26 C .07800001 .22066669 .08466667 .18666668 .098000008 .158 C .11133335 .12933333 .13000001 .10733333 .15400002 .092 C .17866667 .07733333 .20800002 .07 .24200002 .07 C .2786667 .07 .30833338 .077 .33100004 .091 C .35433338 .105 .37300004 .12400001 .38700003 .14800002 L .45000003 .111 C .43733336 .08833333 .421 .06866667 .40100003 .052000006 C .38166667 .035333337 .35866667 .022333334 .33200003 .013 C .30600003 .0043333338 .27666668 0 .24400002 0 Z "/>
</symbol>
<symbol id="font_0_1e8">
<path d="M .229 0 C .18033333 0 .13533335 .010333334 .09400001 .031000004 C .053333343 .051666667 .022000002 .081 0 .119 L .068 .16800002 C .08266667 .13733334 .10400001 .11333334 .13200002 .096 C .16066669 .078666668 .19500001 .07 .23500002 .07 C .27033336 .07 .298 .07666667 .31800003 .09 C .33800004 .104 .34800003 .122 .34800003 .14400001 C .34800003 .158 .34333337 .17066668 .33400003 .18200001 C .32533337 .194 .30833338 .20266669 .28300003 .20800002 L .16300002 .23300001 C .11433334 .24300002 .079333338 .25966669 .058000003 .283 C .037333337 .30633334 .027 .33533336 .026999999 .37 C .027 .39733336 .03466667 .42233337 .05 .44500003 C .066 .46766667 .08833334 .48566667 .11700001 .499 C .14633335 .513 .18066669 .52000007 .22 .52000007 C .26933337 .52000007 .31100003 .51033338 .34500004 .49100004 C .37900005 .4716667 .40433336 .44433335 .42100004 .409 L .35400004 .365 C .34266673 .39433337 .32433335 .41566668 .29900003 .42900003 C .27366669 .443 .24733334 .45000003 .22 .45000003 C .19600003 .45000003 .17533334 .4466667 .158 .44 C .14133334 .4333333 .12833333 .42400003 .119 .412 C .110333349 .40066669 .106000009 .38766668 .106000009 .373 C .106000009 .35833336 .111 .3446667 .12100001 .33200003 C .131 .32000003 .14966668 .31133334 .17700002 .306 L .30200003 .28 C .34866668 .2706667 .38133336 .25533334 .40000005 .23400001 C .4186667 .21266668 .42800007 .18666668 .42800004 .15600002 C .42800007 .12466667 .41966669 .097 .40300004 .073 C .38633336 .04966667 .363 .03166667 .333 .019000002 C .303 .006333334 .26833336 0 .229 0 Z "/>
</symbol>
<symbol id="font_0_ad">
<path d="M .277 .68 C .335 .68 .385 .668 .42700003 .644 C .469 .6206667 .504 .586 .53200009 .54 L .465 .488 C .44033335 .5306667 .41233335 .56066676 .381 .578 C .35033334 .596 .313 .605 .269 .605 C .23366666 .605 .20433335 .6 .18100001 .59000006 C .15833335 .58 .14166668 .56666669 .13100001 .55 C .120333347 .534 .11500001 .51566669 .11500001 .495 C .11500001 .47166667 .12233335 .451 .13700001 .433 C .15166669 .41566668 .18100001 .40200005 .22500001 .39200003 L .368 .36 C .43133334 .34600006 .47533337 .32466669 .50000008 .296 C .5253334 .268 .53800007 .233 .53800007 .19100002 C .53800007 .15366668 .5273334 .12033334 .50600007 .091 C .48533336 .062333336 .456 .040000004 .418 .024 C .38 .008 .33533336 0 .284 0 C .23600002 0 .1936667 .006333334 .157 .019000002 C .121000017 .032333334 .09000001 .05 .06400001 .072000008 C .038000008 .094000007 .016666668 .11866667 0 .14600002 L .07000001 .20300001 C .08266667 .17766667 .099 .15533334 .119 .136 C .139 .116666678 .163 .10166667 .19100002 .091 C .21966668 .08033333 .25233335 .075 .289 .075 C .32299999 .075 .35233335 .079 .377 .087000008 C .40233336 .09566667 .4216667 .108 .435 .124000009 C .44833336 .14066668 .455 .16066669 .455 .18400002 C .455 .20533335 .44800005 .22433335 .43400003 .24100001 C .42 .25833334 .39366666 .27133335 .35500003 .28 L .20000002 .315 C .15933335 .32433335 .12633334 .337 .10100001 .35300002 C .076333347 .3696667 .05833334 .38900004 .047000003 .411 C .036333335 .4336667 .030999998 .45800004 .031 .48400004 C .030999998 .51933339 .04066667 .5516667 .060000007 .58100005 C .080000009 .61100009 .10833334 .63500007 .14500001 .653 C .18233335 .671 .22633334 .68 .277 .68 Z "/>
</symbol>
<symbol id="font_0_18e">
<path d="M .059999996 .596 C .041999997 .596 .027333333 .6013334 .015999996 .61200007 C .005333332 .6233334 0 .638 0 .656 C 0 .674 .005333332 .68833336 .015999996 .69900009 C .027333333 .71033337 .041999997 .716 .059999996 .716 C .078 .716 .09233334 .71033337 .10300001 .69900009 C .11433333 .68833336 .12 .674 .12 .656 C .12 .638 .11433333 .6233334 .10300001 .61200007 C .09233334 .6013334 .078 .596 .059999996 .596 M .1 .5 L .1 0 L .019999996 0 L .019999996 .5 L .1 .5 Z "/>
</symbol>
<symbol id="font_0_1b0">
<path d="M 0 0 L 0 .5 L .07 .5 L .077 .388 L .064 .39900003 C .07466667 .4256667 .08900001 .44700004 .107 .46300004 C .125 .4796667 .14566668 .4916667 .16900003 .499 C .19300002 .50633338 .21766669 .51000007 .24300003 .51000007 C .279 .51000007 .3116667 .503 .34100003 .48900003 C .37033335 .47566668 .39366666 .455 .411 .42700003 C .42900003 .39900003 .43800006 .36333335 .43800003 .32000003 L .43800003 0 L .35800005 0 L .35800005 .29200004 C .35800005 .34733335 .34600006 .3856667 .32200004 .407 C .2986667 .42900003 .2696667 .44000004 .23500002 .44000004 C .21100003 .44000004 .18700004 .43433336 .16300002 .423 C .13900002 .41166667 .11900001 .39333336 .10300001 .36800004 C .08766667 .34266673 .080000009 .30866669 .080000009 .266 L .080000009 0 L 0 0 Z "/>
</symbol>
<symbol id="font_0_181">
<path d="M .478 .80700007 L .496 .73600009 C .49533335 .73600009 .49433337 .73600009 .49300004 .73600009 C .49166668 .73600009 .49033333 .73600009 .48900003 .73600009 C .4563333 .73600009 .431 .7293334 .41300003 .7160001 C .3956667 .7033334 .387 .6826667 .387 .65400007 L .338 .679 C .33799998 .7050001 .344 .7276667 .356 .747 C .36800004 .76633337 .38433335 .78099998 .405 .791 C .4256667 .80166676 .44833336 .807 .473 .80700007 C .47366668 .807 .47433339 .807 .47500003 .80700007 C .47633336 .807 .4773333 .807 .478 .80700007 M .326 .279 C .37333334 .279 .41033338 .268 .437 .246 C .46366669 .22466667 .477 .196 .477 .16 C .477 .12733333 .466 .099 .444 .075 C .42266668 .050999997 .39366666 .032666658 .357 .019999996 C .321 .0066666656 .28033335 0 .23500003 0 C .15633334 0 .09733334 .013333331 .058000003 .03999999 C .019333335 .06666666 0 .09866667 0 .136 C 0 .16266667 .008666667 .18666667 .026 .208 C .044 .22866667 .074 .24033334 .11600001 .243 L .10900001 .228 C .086333338 .23400001 .067 .244 .051000004 .25800003 C .03566667 .27266667 .028000003 .2936667 .028 .321 C .028000003 .34833334 .038000004 .37166668 .058000003 .39100004 C .078666668 .411 .109000008 .42333333 .149 .42800004 L .202 .40100003 L .19200002 .40100003 C .15933335 .3976667 .136 .38933338 .12200001 .37600003 C .10866668 .36333335 .10200002 .34933333 .10200001 .334 C .10200002 .31533335 .10866668 .30133335 .12200001 .292 C .136 .28333334 .15533334 .279 .18 .279 L .326 .279 M .23400001 .067 C .27266667 .067 .30433334 .071 .329 .078999999 C .3543333 .08699999 .37300004 .097333338 .38500003 .11 C .39699999 .12266668 .403 .13633333 .403 .151 C .403 .16899999 .3956667 .18333334 .381 .194 C .367 .20466668 .34133337 .21 .304 .21000001 L .15 .21000001 C .12866669 .21 .11066667 .20466668 .096 .194 C .08133333 .18266666 .074 .16733332 .074 .148 C .074 .123333338 .088 .10366666 .11600001 .089 C .14466667 .07433333 .18400002 .067 .23400001 .067 M .22700002 .725 C .267 .7250001 .30233334 .7176667 .333 .70300009 C .3643333 .68900009 .38866667 .6693334 .40600003 .64400008 C .42333333 .6186667 .432 .58933338 .432 .556 C .432 .5233334 .42333333 .49400006 .40600003 .46800003 C .38866667 .44266669 .3643333 .42266668 .333 .408 C .30233334 .39400003 .267 .387 .22700002 .38700003 C .16100002 .387 .110333349 .4026667 .075 .43400003 C .039666669 .466 .022 .50666669 .022 .556 C .022 .58933338 .03066667 .6186667 .048000006 .64400008 C .06600001 .6693334 .09033334 .68900009 .12100001 .70300009 C .15166669 .7176667 .18700002 .7250001 .22700002 .725 M .22700002 .66 C .19233334 .66 .16333334 .65033337 .14000002 .63100007 C .116666678 .61233338 .105 .5873334 .105000007 .556 C .105 .52533337 .116666678 .5003333 .14000002 .481 C .16333334 .46166668 .19233334 .45200003 .22700002 .45200003 C .2616667 .45200003 .29066668 .46166668 .314 .481 C .33733336 .5003333 .349 .52533337 .349 .556 C .349 .5873334 .33733336 .61233338 .314 .63100007 C .29066668 .65033337 .2616667 .66 .22700002 .66 Z "/>
</symbol>
<use xlink:href="#font_0_72" transform="matrix(48,0,0,-48,194.0404,568.3457)" fill="#131316"/>
<use xlink:href="#font_0_13c" transform="matrix(48,0,0,-48,231.8644,568.8257)" fill="#131316"/>
<use xlink:href="#font_0_1f5" transform="matrix(48,0,0,-48,256.1332,568.8257)" fill="#131316"/>
<use xlink:href="#font_0_158" transform="matrix(48,0,0,-48,276.586,568.8257)" fill="#131316"/>
<use xlink:href="#font_0_189" transform="matrix(48,0,0,-48,304.08039,568.3457)" fill="#131316"/>
<use xlink:href="#font_0_167" transform="matrix(48,0,0,-48,331.20039,568.8257)" fill="#131316"/>
<use xlink:href="#font_0_1e8" transform="matrix(48,0,0,-48,357.67237,568.8257)" fill="#131316"/>
<use xlink:href="#font_0_ad" transform="matrix(48,0,0,-48,705.2884,234.31374)" fill="#131316"/>
<use xlink:href="#font_0_167" transform="matrix(48,0,0,-48,736.29159,234.31374)" fill="#131316"/>
<use xlink:href="#font_0_1f5" transform="matrix(48,0,0,-48,761.74118,234.31374)" fill="#131316"/>
<use xlink:href="#font_0_1f5" transform="matrix(48,0,0,-48,782.70278,234.31374)" fill="#131316"/>
<use xlink:href="#font_0_18e" transform="matrix(48,0,0,-48,804.3316,233.83374)" fill="#131316"/>
<use xlink:href="#font_0_1b0" transform="matrix(48,0,0,-48,816.95559,233.83374)" fill="#131316"/>
<use xlink:href="#font_0_181" transform="matrix(48,0,0,-48,843.19247,244.15375)" fill="#131316"/>
<use xlink:href="#font_0_1e8" transform="matrix(48,0,0,-48,868.0084,234.31374)" fill="#131316"/>
<symbol id="font_0_ba">
<path d="M .54 .66 L .54 .58500006 L .31 .58500006 L .31 0 L .23000002 0 L .23000002 .58500006 L 0 .58500006 L 0 .66 L .54 .66 Z "/>
</symbol>
<symbol id="font_0_1ba">
<path d="M .24200002 .52000007 C .28933335 .52000007 .331 .5096667 .367 .48900003 C .4036667 .46833334 .43233336 .43833337 .45300005 .39900003 C .4736667 .36033336 .48400007 .314 .48400007 .26 C .48400007 .20600002 .4736667 .15933335 .45300005 .120000008 C .43233336 .08133334 .4036667 .051666667 .367 .031000004 C .331 .010333334 .28933335 0 .24200002 0 C .19533335 0 .15366668 .010333334 .11700001 .031000004 C .080333348 .051666667 .051666667 .08133334 .031 .120000008 C .010333333 .15933335 0 .20600002 0 .26 C 0 .314 .010333333 .36033336 .031 .39900003 C .051666667 .43833337 .080333348 .46833334 .11700001 .48900003 C .15366668 .5096667 .19533335 .52000007 .24200002 .52000007 M .24200002 .451 C .20800002 .451 .17900002 .44333337 .15500002 .428 C .131 .41266669 .112333338 .3906667 .09900001 .36200003 C .08633334 .334 .08000001 .29999999 .08000001 .26 C .08000001 .22066669 .08633334 .18666668 .09900001 .158 C .112333338 .12933333 .131 .10733333 .15500002 .092 C .17900002 .076666679 .20800002 .069000009 .24200002 .069000009 C .27600003 .069000009 .30500005 .076666679 .32900004 .092 C .35300002 .10733333 .37133337 .12933333 .38400004 .158 C .39733336 .18666668 .404 .22066669 .404 .26 C .404 .29999999 .39733336 .334 .38400004 .36200003 C .37133337 .3906667 .35300002 .41266669 .32900004 .428 C .30500005 .44333337 .27600003 .451 .24200002 .451 Z "/>
</symbol>
<symbol id="font_0_1fd">
<path d="M .18600002 0 C .15400002 0 .123666677 .0060000007 .095000009 .018000002 C .067 .030000002 .044 .049333335 .026 .076 C .008666667 .10333333 0 .13866668 0 .18200001 L 0 .51 L .080000009 .51 L .080000009 .20300001 C .080000009 .15233334 .091 .11733333 .113 .098000008 C .135 .079333338 .166 .07 .206 .07 C .22466667 .07 .24300003 .07300001 .261 .079 C .279 .085666667 .29500003 .09566667 .30900003 .109000008 C .3236667 .123 .33500005 .14066668 .34300003 .16200002 C .3516667 .18333335 .35600005 .20866668 .35600005 .23800002 L .35600005 .51 L .43600006 .51 L .43600006 .010000001 L .36600004 .010000001 L .36100004 .086 C .34366668 .056000007 .32000003 .034 .29000003 .020000002 C .2606667 .0066666675 .22600003 0 .18600002 0 Z "/>
</symbol>
<symbol id="font_0_1e0">
<path d="M 0 0 L 0 .5 L .065000008 .5 L .07600001 .418 C .09000001 .4486667 .110333349 .4716667 .137 .48700003 C .16433336 .50233337 .19733338 .51000007 .23600003 .51000007 C .2446667 .51000007 .25400005 .5093334 .26400004 .508 C .2746667 .5066667 .2836667 .504 .291 .5 L .277 .42700003 C .2696667 .42966668 .2616667 .4316667 .25300003 .43300004 C .24433334 .43433336 .23200001 .43500004 .21600002 .43500004 C .19533336 .43500004 .17433335 .42900003 .153 .41700004 C .13233334 .405 .115 .3866667 .101 .36200003 C .087000008 .33800004 .080000009 .30733336 .080000009 .27 L .080000009 0 L 0 0 Z "/>
</symbol>
<symbol id="font_0_1ae">
<path d="M 0 0 L 0 .5 L .07 .5 L .07500001 .42200003 C .093 .45266668 .11633334 .47500003 .14500001 .48900003 C .17433334 .503 .20433335 .51000007 .23500002 .51000007 C .27033336 .51000007 .30366669 .50200006 .33500005 .48600004 C .36633338 .47000004 .39033333 .44533337 .407 .41200004 C .41766668 .43466667 .4326667 .45299999 .45200003 .467 C .47133336 .48166669 .49233333 .49233333 .51500007 .499 C .53833338 .50633338 .5603333 .51000007 .58100005 .51000007 C .6130001 .51000007 .6433334 .5033334 .67200008 .49 C .70133337 .4766667 .7253334 .456 .744 .42800004 C .7626667 .4 .7720001 .364 .7720001 .32000003 L .7720001 0 L .69200006 0 L .69200006 .312 C .6920001 .35733334 .6806667 .39000003 .65800008 .41000004 C .63533338 .43000005 .60733339 .44000004 .57400009 .44000004 C .54800006 .44000004 .5236667 .4336667 .50100007 .42100004 C .47833336 .40833334 .46000005 .38966669 .44600005 .365 C .4326667 .34033335 .42600004 .31000004 .42600007 .27400003 L .42600007 0 L .34600003 0 L .34600003 .312 C .34600006 .35733334 .3346667 .39000003 .31200005 .41000004 C .28933338 .43000005 .26133336 .44000004 .22800002 .44000004 C .20600002 .44000004 .18333335 .43400003 .16000003 .42200003 C .13733335 .4106667 .11833335 .39233337 .10300001 .367 C .08766667 .3416667 .080000009 .30833338 .080000009 .26700003 L .080000009 0 L 0 0 Z "/>
</symbol>
<symbol id="font_0_445">
<path d="M -2147483500 -2147483500 Z "/>
</symbol>
<symbol id="font_0_373">
<path d="M .19 0 L .19 .48400004 C .19 .49533335 .19 .50733336 .19 .52000007 C .19066668 .53333339 .19133334 .547 .192 .56100007 C .16933334 .53900006 .143 .5196667 .11300001 .503 C .083000008 .48700003 .052333338 .47533337 .021 .46800003 L 0 .541 C .012000001 .54233339 .027 .5466667 .045 .554 C .06366667 .56200006 .083000008 .5716667 .10300001 .583 C .123666677 .595 .14266667 .6076667 .16 .62100008 C .17733334 .6343334 .19066668 .6473334 .2 .66 L .27 .66 L .27 0 L .19 0 Z "/>
</symbol>
<use xlink:href="#font_0_ba" transform="matrix(72,0,0,-72,133.9476,242.15039)" fill="#131316"/>
<use xlink:href="#font_0_1ba" transform="matrix(72,0,0,-72,171.0204,242.87039)" fill="#131316"/>
<use xlink:href="#font_0_1fd" transform="matrix(72,0,0,-72,214.4364,242.87039)" fill="#131316"/>
<use xlink:href="#font_0_1e0" transform="matrix(72,0,0,-72,256.84443,242.15039)" fill="#131316"/>
<use xlink:href="#font_0_1b0" transform="matrix(72,0,0,-72,284.62925,242.15039)" fill="#131316"/>
<use xlink:href="#font_0_13c" transform="matrix(72,0,0,-72,324.8052,242.87039)" fill="#131316"/>
<use xlink:href="#font_0_1ae" transform="matrix(72,0,0,-72,366.19084,242.15039)" fill="#131316"/>
<use xlink:href="#font_0_167" transform="matrix(72,0,0,-72,430.3428,242.87039)" fill="#131316"/>
<use xlink:href="#font_0_1b0" transform="matrix(72,0,0,-72,472.46284,242.15039)" fill="#131316"/>
<use xlink:href="#font_0_1f5" transform="matrix(72,0,0,-72,510.0252,242.87039)" fill="#131316"/>
<use xlink:href="#font_0_445" transform="matrix(72,0,0,-72,154618800000,-154618800000)" fill="#131316"/>
<use xlink:href="#font_0_373" transform="matrix(72,0,0,-72,563.802,242.15039)" fill="#131316"/>
<symbol id="font_1_a2">
<path d="M .277 .66 C .32766668 .66 .37100003 .65133336 .40700004 .634 C .44300006 .61733338 .47066675 .593 .49000005 .56100007 C .51 .52966669 .52 .49166668 .52 .44700004 C .52 .40233336 .51 .364 .49000005 .33200003 C .47066675 .3006667 .44300006 .27633337 .40700004 .259 C .37100003 .24233334 .32766668 .23400001 .277 .23400001 L .13800001 .23400001 L .13800001 0 L 0 0 L 0 .66 L .277 .66 M .256 .34300003 C .29733337 .34300003 .32833336 .3516667 .34900005 .36900003 C .3696667 .387 .38000003 .41300003 .38000003 .44700004 C .38000003 .48166669 .3696667 .50766667 .34900005 .52500006 C .32833336 .54233339 .29733337 .551 .256 .551 L .13800001 .551 L .13800001 .34300003 L .256 .34300003 Z "/>
</symbol>
<symbol id="font_1_13c">
<path d="M .31200005 .329 C .31200005 .35766665 .30366669 .38 .287 .396 C .271 .41200004 .24966668 .42 .223 .42000003 C .19833334 .42 .17666668 .4136667 .158 .40100003 C .13933335 .38833333 .12566668 .36733333 .117 .338 L 0 .374 C .011333334 .41799999 .036000004 .45333336 .074 .48000003 C .11266667 .5066667 .16433335 .52000007 .22900002 .52000007 C .27300004 .52000007 .31133337 .513 .34400005 .499 C .3766667 .48566667 .40200005 .46533335 .42000003 .43800003 C .43866668 .4106667 .44800005 .37633337 .448 .335 L .448 .13200002 C .44800005 .10666668 .46000005 .094000007 .48400004 .094000007 C .49533335 .094000007 .506 .09566667 .51600006 .099 L .508 .014 C .49066667 .0053333339 .469 .0010000002 .44300003 .0010000002 C .41966669 .0010000002 .39866666 .0050000005 .38 .013 C .36133335 .021000004 .34666667 .033000005 .33600004 .049000004 C .32533334 .06566667 .32 .086333338 .32 .111 L .32 .115 L .34400005 .119 C .34 .09366667 .329 .072000008 .311 .054000006 C .293 .03666667 .27100004 .023333334 .24500002 .014 C .21966668 .004666667 .19333335 0 .16600001 0 C .13200002 0 .102666679 .0050000005 .078 .015000001 C .05333333 .025666669 .034333335 .041000006 .020999998 .061000006 C .0076666676 .081 .001000002 .10566667 .001000002 .135 C .001000002 .17233335 .013000001 .20266669 .037 .22600001 C .061000006 .25 .09533334 .26633335 .14 .275 L .328 .313 L .32700003 .22800002 L .207 .20400001 C .18433334 .19933336 .16700001 .19300002 .155 .18500002 C .14366667 .17766668 .13800001 .16533335 .13800001 .14800002 C .13800001 .13133334 .14400001 .11866667 .156 .11 C .16866668 .10133334 .18366666 .097 .201 .097 C .21500002 .097 .22866668 .09866667 .242 .102000009 C .25533334 .105333339 .26733337 .11066667 .278 .118 C .2886667 .12533334 .29700003 .13533335 .30300004 .14800002 C .30900005 .16066669 .31200005 .17600002 .31200005 .19400002 L .31200005 .329 Z "/>
</symbol>
<symbol id="font_1_18e">
<path d="M .085 .572 C .056333335 .572 .035000005 .578 .021000006 .59000006 C .0070000018 .6026667 0 .62100008 0 .64500007 C 0 .6696667 .0070000018 .688 .021000006 .70000007 C .035000005 .7126667 .056333335 .71900007 .085 .71900007 C .11366668 .71900007 .13500002 .7126667 .14900002 .70000007 C .16300002 .688 .17000002 .6696667 .17000002 .64500007 C .17000002 .62100008 .16300002 .6026667 .14900002 .59000006 C .13500002 .578 .11366668 .572 .085 .572 M .153 .5 L .153 0 L .016000003 0 L .016000003 .5 L .153 .5 Z "/>
</symbol>
<symbol id="font_1_1e0">
<path d="M 0 0 L 0 .5 L .11900001 .5 L .12799999 .402 C .14133333 .4366667 .16066668 .46333338 .18600002 .48200003 C .21200001 .5006667 .24433334 .51000007 .28300003 .51000007 C .29433335 .51000007 .30466668 .50900009 .314 .507 C .32333336 .50500008 .331 .50233337 .337 .499 L .321 .384 C .31433336 .3866667 .30600003 .38866667 .29600004 .39000003 C .28666667 .39133335 .27433337 .39200006 .25900004 .39200003 C .23900004 .39200006 .21966668 .387 .201 .377 C .18233335 .3676667 .16700001 .35300002 .155 .333 C .14299999 .31366668 .137 .289 .137 .259 L .137 0 L 0 0 Z "/>
</symbol>
<symbol id="font_1_445">
<path d="M -2147483500 -2147483500 Z "/>
</symbol>
<symbol id="font_1_1ba">
<path d="M .256 .52000007 C .3066667 .52000007 .35100005 .5096667 .38900004 .48900003 C .4276667 .46833334 .45766668 .43866668 .479 .4 C .501 .36133335 .512 .31466667 .512 .26 C .512 .20600002 .501 .15933335 .479 .120000008 C .45766668 .08133334 .4276667 .051666667 .38900004 .031000004 C .35100005 .010333334 .3066667 0 .256 0 C .20600002 0 .16166668 .010333334 .12300001 .031000004 C .08433334 .051666667 .054 .08133334 .032 .120000008 C .0106666679 .15933335 0 .20600002 0 .26 C 0 .31466667 .0106666679 .36133335 .032 .4 C .054 .43866668 .08433334 .46833334 .12300001 .48900003 C .16166668 .5096667 .20600002 .52000007 .256 .52000007 M .256 .418 C .23066668 .418 .20900004 .41200004 .19100002 .4 C .17366667 .38866667 .16033334 .37133337 .15100001 .34800003 C .14166667 .32466666 .13700001 .29533334 .13700001 .26 C .13700001 .22466667 .14166667 .19533335 .15100001 .172 C .16033334 .14866668 .17366667 .131 .19100002 .119 C .20900004 .10766667 .23066668 .102000009 .256 .102000009 C .28066669 .102000009 .30166669 .10766667 .319 .119 C .337 .131 .35066668 .14866668 .36 .172 C .36933337 .19533335 .37399999 .22466667 .374 .26 C .37399999 .29533334 .36933337 .32466666 .36 .34800003 C .35066668 .37133337 .337 .38866667 .319 .4 C .30166669 .41200004 .28066669 .418 .256 .418 Z "/>
</symbol>
<symbol id="font_1_1fd">
<path d="M .177 0 C .14366667 0 .113666679 .0060000007 .087 .018000002 C .06033333 .030000002 .039 .049000008 .023000002 .075 C .0076666676 .10166667 0 .136 0 .17800002 L 0 .51 L .13700001 .51 L .13700001 .21100001 C .13700001 .17233335 .145 .14533335 .161 .13000001 C .177 .11533334 .2 .108 .23000002 .108 C .24400002 .108 .25766669 .11033333 .271 .115 C .28433336 .12033334 .296 .12833335 .30600003 .13900002 C .3166667 .14966668 .32500003 .16333334 .331 .18 C .337 .19733334 .34 .21766669 .34 .24100001 L .34 .51 L .477 .51 L .477 .010000001 L .35500003 .010000001 L .35000003 .097 C .33333335 .06366667 .31033335 .039 .28100003 .023000002 C .25233335 .0076666676 .21766667 0 .177 0 Z "/>
</symbol>
<symbol id="font_1_1b0">
<path d="M 0 0 L 0 .5 L .123 .5 L .13100001 .35000003 L .114 .36600004 C .12200001 .3986667 .13466668 .42533336 .15200001 .446 C .16933334 .46733336 .19033332 .48333336 .215 .49400003 C .24033337 .50466677 .268 .51000007 .298 .51000007 C .33266668 .51000007 .36333335 .5033334 .39000003 .49 C .41733337 .4766667 .4386667 .45633338 .45400004 .42900003 C .47000004 .40233336 .47800002 .36866669 .47800002 .328 L .47800002 0 L .34100003 0 L .34100003 .289 C .341 .33166669 .33266668 .36100004 .316 .377 C .29933334 .39366666 .2776667 .40200005 .25100003 .402 C .23233335 .40200005 .21400003 .39733336 .19600001 .388 C .17866667 .37933336 .16433335 .365 .153 .34500004 C .14233333 .32500003 .137 .29833339 .137 .26500003 L .137 0 L 0 0 Z "/>
</symbol>
<symbol id="font_1_15f">
<path d="M .214 0 C .17266667 0 .13566667 .010333334 .103 .031000004 C .071 .051666667 .04566667 .08133334 .026999999 .120000008 C .009 .15866669 0 .205 0 .259 C 0 .31433336 .009666667 .36133335 .029000003 .4 C .048333337 .43933336 .07433334 .469 .10700001 .48900003 C .14033334 .5096667 .17766667 .52000007 .219 .52000007 C .263 .52000007 .29933337 .50733336 .32800005 .48200003 C .35666669 .45666669 .37533335 .42400003 .38400004 .384 L .37100003 .368 L .37100003 .72900006 L .508 .72900006 L .508 .010000001 L .38500003 .010000001 L .37600003 .16200002 L .39200003 .15400002 C .388 .12266668 .3776667 .09533334 .36100004 .072000008 C .34433339 .049333335 .32333336 .03166667 .29800005 .019000002 C .2726667 .006333334 .24466668 0 .214 0 M .25400005 .105000007 C .27800004 .105 .2986667 .111 .316 .123 C .33333338 .13566667 .3466667 .154 .35600005 .17800002 C .36600004 .20200002 .37100003 .23066668 .37100003 .264 C .37100003 .296 .36633338 .32299999 .35700003 .345 C .3476667 .3676667 .33433334 .385 .31700004 .397 C .2996667 .409 .27933336 .41500006 .256 .41500003 C .21866668 .41500006 .18933334 .40166668 .168 .375 C .14733334 .34899999 .13700001 .31066666 .13700001 .26 C .13700001 .20933335 .14733334 .17066668 .168 .14400001 C .18866666 .11800001 .21733336 .105 .25400005 .105000007 Z "/>
</symbol>
<use xlink:href="#font_1_a2" transform="matrix(48,0,0,-48,999.2774,242.15039)" fill="#131316"/>
<use xlink:href="#font_1_13c" transform="matrix(48,0,0,-48,1027.8519,242.63039)" fill="#131316"/>
<use xlink:href="#font_1_18e" transform="matrix(48,0,0,-48,1055.4423,242.15039)" fill="#131316"/>
<use xlink:href="#font_1_1e0" transform="matrix(48,0,0,-48,1069.0744,242.15039)" fill="#131316"/>
<use xlink:href="#font_1_445" transform="matrix(48,0,0,-48,103079210000,-103079210000)" fill="#131316"/>
<use xlink:href="#font_1_1e0" transform="matrix(48,0,0,-48,1104.0183,242.15039)" fill="#131316"/>
<use xlink:href="#font_1_1ba" transform="matrix(48,0,0,-48,1122.1959,242.63039)" fill="#131316"/>
<use xlink:href="#font_1_1fd" transform="matrix(48,0,0,-48,1151.5862,242.63039)" fill="#131316"/>
<use xlink:href="#font_1_1b0" transform="matrix(48,0,0,-48,1180.7222,242.15039)" fill="#131316"/>
<use xlink:href="#font_1_15f" transform="matrix(48,0,0,-48,1208.6294,242.63039)" fill="#131316"/>
<symbol id="font_0_24">
<path d="M .213 .66 C .31633333 .66 .39733336 .63133338 .456 .574 C .51533338 .5173333 .5450001 .43600003 .5450001 .33 C .5450001 .22400002 .51533338 .14233335 .456 .085 C .39733336 .028333335 .31633333 0 .213 0 L 0 0 L 0 .66 L .213 .66 M .22100002 .075 C .29633335 .075 .35500003 .097333338 .39699999 .142 C .43966667 .18733335 .461 .25 .461 .33 C .461 .41 .43966667 .47233335 .39699999 .517 C .35500003 .56233337 .29633335 .58500006 .22100002 .58500006 L .080000009 .58500006 L .080000009 .075 L .22100002 .075 Z "/>
</symbol>
<symbol id="font_0_157">
<path d="M .24500004 0 C .21700001 0 .19100003 .0050000005 .16700003 .015000001 C .14300002 .025 .12233335 .039 .10500001 .057000005 C .08766667 .074999999 .07466667 .09533334 .06600001 .118 L .077 .13200002 L .07 .010000001 L 0 .010000001 L 0 .74 L .080000009 .74 L .080000009 .397 L .07 .412 C .08333334 .44333337 .105666678 .469 .137 .48900003 C .16900003 .5096667 .20533335 .52000007 .24600002 .52000007 C .28733338 .52000007 .32533337 .5096667 .36 .48900003 C .39466668 .46833334 .42233334 .43866668 .44300003 .4 C .46366669 .36133335 .47400008 .31466667 .47400005 .26 C .47400008 .20600002 .46333338 .15933335 .44200004 .120000008 C .42133335 .08133334 .39366666 .051666667 .35900004 .031000004 C .32433335 .010333334 .28633336 0 .24500004 0 M .23700002 .07 C .28633336 .07 .3246667 .08733333 .35200004 .122 C .38000003 .15666668 .39400003 .20266669 .39400003 .26 C .39400003 .31733335 .38033334 .36333335 .35300002 .398 C .3256667 .4326667 .28733338 .45000003 .23800004 .45000003 C .2066667 .45000003 .17900002 .442 .155 .426 C .13166668 .41 .113333348 .38766668 .1 .359 C .08666667 .33033336 .080000009 .29666669 .080000009 .25800003 C .080000009 .22000003 .086333338 .18666668 .099 .158 C .112333338 .13000001 .13066668 .10833334 .15400002 .093 C .17800002 .07766667 .2056667 .07 .23700002 .07 Z "/>
</symbol>
<symbol id="font_0_15f">
<path d="M .22800002 0 C .18666668 0 .14866668 .010333334 .11400001 .031000004 C .07933334 .051666667 .051666675 .08133334 .031000004 .120000008 C .010333334 .15933335 0 .20600002 0 .26 C 0 .31533335 .011 .36233334 .033 .40100003 C .054999997 .43966667 .084 .469 .120000008 .48900003 C .156 .5096667 .19466667 .52000007 .236 .52000007 C .27733336 .52000007 .313 .5093334 .34300003 .488 C .37366668 .46666668 .39400003 .43833337 .404 .403 L .39400003 .396 L .39400003 .74 L .47400005 .74 L .47400005 .010000001 L .404 .010000001 L .397 .13100001 L .40800003 .13700001 C .40333335 .10766667 .39200006 .08266667 .374 .062000004 C .35666669 .042 .33500005 .02666667 .30900003 .016 C .2836667 .0053333339 .2566667 0 .22800002 0 M .236 .07 C .268 .07 .29566667 .078 .319 .094000007 C .34300003 .11000001 .36133338 .13266666 .374 .16200002 C .38733337 .19200002 .39400003 .227 .39400003 .267 C .39400003 .30499999 .38733337 .33766667 .374 .365 C .36133338 .39233337 .34333337 .41333334 .32000003 .428 C .29733337 .44266669 .2706667 .45000003 .24000001 .45000003 C .18933334 .45000003 .15 .4326667 .12200001 .398 C .094000007 .36333335 .08 .31733335 .08 .26 C .08 .20266669 .09366667 .15666668 .12100001 .122 C .14833336 .08733333 .18666668 .07 .236 .07 Z "/>
</symbol>
<symbol id="font_0_374">
<path d="M .020999998 0 L .020999998 .065000008 C .087000008 .113666679 .142 .15633334 .186 .193 C .23066668 .22966667 .26633335 .263 .293 .293 C .31966666 .32300005 .33866669 .35133339 .35000003 .37800003 C .36133338 .40533338 .367 .4336667 .367 .46300004 C .367 .50233337 .35433338 .534 .32900004 .558 C .30433337 .5826667 .27033336 .595 .227 .595 C .18166667 .595 .14533334 .58 .118 .55 C .090666677 .52066668 .07466667 .48133338 .07 .432 L 0 .47400005 C .0059999998 .5126667 .018333333 .5466667 .037 .57600006 C .056333335 .6053333 .082 .62833335 .11400001 .64500007 C .14666666 .6616667 .18533333 .67 .23000002 .67 C .26400004 .67 .29433335 .665 .321 .65500006 C .34833337 .64500007 .37166668 .63066676 .39100004 .61200007 C .41033338 .59400007 .42500005 .5723334 .43500004 .54700008 C .44566668 .5216667 .451 .49366669 .451 .46300004 C .451 .4216667 .441 .38100005 .42100004 .34100003 C .40100003 .30166669 .36800004 .26033334 .32200004 .21700001 C .27600003 .17366667 .21366668 .12566668 .135 .07300001 L .135 .072000008 C .14233335 .072666678 .15233334 .07300001 .165 .07300001 C .17833334 .07366667 .19133334 .074 .204 .074 C .21733333 .07466667 .22733335 .075 .234 .075 L .465 .075 L .465 0 L .020999998 0 Z "/>
</symbol>
<use xlink:href="#font_0_24" transform="matrix(24,0,0,-24,650.7824,78.180728)" fill="#131316"/>
<use xlink:href="#font_0_13c" transform="matrix(24,0,0,-24,666.7592,78.42072)" fill="#131316"/>
<use xlink:href="#font_0_1e8" transform="matrix(24,0,0,-24,680.15127,78.42072)" fill="#131316"/>
<use xlink:href="#font_0_189" transform="matrix(24,0,0,-24,693.7184,78.180728)" fill="#131316"/>
<use xlink:href="#font_0_157" transform="matrix(24,0,0,-24,708.2384,78.42072)" fill="#131316"/>
<use xlink:href="#font_0_1ba" transform="matrix(24,0,0,-24,722.3193,78.42072)" fill="#131316"/>
<use xlink:href="#font_0_13c" transform="matrix(24,0,0,-24,736.53689,78.42072)" fill="#131316"/>
<use xlink:href="#font_0_1e0" transform="matrix(24,0,0,-24,750.74008,78.180728)" fill="#131316"/>
<use xlink:href="#font_0_15f" transform="matrix(24,0,0,-24,759.30807,78.42072)" fill="#131316"/>
<use xlink:href="#font_0_ba" transform="matrix(24,0,0,-24,835.1024,78.180728)" fill="#131316"/>
<use xlink:href="#font_0_1ba" transform="matrix(24,0,0,-24,848.0432,78.42072)" fill="#131316"/>
<use xlink:href="#font_0_1fd" transform="matrix(24,0,0,-24,862.92318,78.42072)" fill="#131316"/>
<use xlink:href="#font_0_1e0" transform="matrix(24,0,0,-24,877.48159,78.180728)" fill="#131316"/>
<use xlink:href="#font_0_1b0" transform="matrix(24,0,0,-24,887.14877,78.180728)" fill="#131316"/>
<use xlink:href="#font_0_13c" transform="matrix(24,0,0,-24,900.95358,78.42072)" fill="#131316"/>
<use xlink:href="#font_0_1ae" transform="matrix(24,0,0,-24,915.15438,78.180728)" fill="#131316"/>
<use xlink:href="#font_0_167" transform="matrix(24,0,0,-24,936.9464,78.42072)" fill="#131316"/>
<use xlink:href="#font_0_1b0" transform="matrix(24,0,0,-24,951.39437,78.180728)" fill="#131316"/>
<use xlink:href="#font_0_1f5" transform="matrix(24,0,0,-24,964.34,78.42072)" fill="#131316"/>
<use xlink:href="#font_0_445" transform="matrix(24,0,0,-24,51539605000,-51539605000)" fill="#131316"/>
<use xlink:href="#font_0_373" transform="matrix(24,0,0,-24,982.268,78.180728)" fill="#131316"/>
<use xlink:href="#font_0_ba" transform="matrix(24,0,0,-24,1036.2704,78.180728)" fill="#131316"/>
<use xlink:href="#font_0_1ba" transform="matrix(24,0,0,-24,1049.2112,78.42072)" fill="#131316"/>
<use xlink:href="#font_0_1fd" transform="matrix(24,0,0,-24,1064.0913,78.42072)" fill="#131316"/>
<use xlink:href="#font_0_1e0" transform="matrix(24,0,0,-24,1078.6497,78.180728)" fill="#131316"/>
<use xlink:href="#font_0_1b0" transform="matrix(24,0,0,-24,1088.3169,78.180728)" fill="#131316"/>
<use xlink:href="#font_0_13c" transform="matrix(24,0,0,-24,1102.1216,78.42072)" fill="#131316"/>
<use xlink:href="#font_0_1ae" transform="matrix(24,0,0,-24,1116.3224,78.180728)" fill="#131316"/>
<use xlink:href="#font_0_167" transform="matrix(24,0,0,-24,1138.1143,78.42072)" fill="#131316"/>
<use xlink:href="#font_0_1b0" transform="matrix(24,0,0,-24,1152.5624,78.180728)" fill="#131316"/>
<use xlink:href="#font_0_1f5" transform="matrix(24,0,0,-24,1165.5079,78.42072)" fill="#131316"/>
<use xlink:href="#font_0_445" transform="matrix(24,0,0,-24,51539605000,-51539605000)" fill="#131316"/>
<use xlink:href="#font_0_374" transform="matrix(24,0,0,-24,1184.2759,78.180728)" fill="#131316"/>
<symbol id="font_0_a2">
<path d="M .23300001 .66 C .2776667 .66 .31633333 .6516667 .349 .63500007 C .38233338 .619 .40833334 .596 .42700003 .56600007 C .44566668 .536 .455 .50033339 .455 .45900003 C .455 .41766668 .44566668 .382 .42700003 .35200004 C .40833334 .32200004 .38233338 .2986667 .349 .282 C .31633333 .266 .2776667 .25800003 .23300001 .25800003 L .080000009 .25800003 L .080000009 0 L 0 0 L 0 .66 L .23300001 .66 M .22100002 .333 C .273 .333 .311 .34366668 .335 .365 C .359 .387 .37100003 .41833339 .37100003 .45900003 C .37100003 .50033339 .359 .5316667 .335 .55300006 C .311 .57433339 .273 .58500006 .22100002 .58500006 L .080000009 .58500006 L .080000009 .333 L .22100002 .333 Z "/>
</symbol>
<symbol id="font_0_1a5">
<path d="M .08000001 .74 L .08000001 .13700001 C .08000001 .11166667 .08466668 .094000007 .09400001 .084 C .10333335 .07466667 .11833334 .07 .13900002 .07 C .15233334 .07 .16333334 .071 .172 .073 C .18066669 .074999999 .19233334 .078666668 .207 .084 L .19400002 .014 C .18333335 .009333334 .17166668 .006000001 .15900001 .0040000008 C .14633335 .0013333336 .13333334 0 .120000008 0 C .079333338 0 .049000008 .011000001 .029000007 .033000005 C .009666669 .055000005 0 .08866667 0 .134 L 0 .74 L .08000001 .74 Z "/>
</symbol>
<symbol id="font_0_21b">
<path d="M .503 .71500006 L .26800005 .131 C .25533334 .09833334 .24133332 .07266667 .22600001 .05399999 C .21133335 .034666659 .19466667 .020999993 .176 .012999997 C .158 .004333332 .13700001 0 .113000009 0 C .09033334 0 .06933334 .0033333302 .050000006 .00999999 C .03133334 .015999994 .014666668 .024333328 0 .034999998 L .022000002 .105 C .035333337 .092999998 .049333335 .08433333 .064 .078999999 C .079333338 .07299999 .09433334 .06999999 .109000008 .06999999 C .12633334 .06999999 .14266669 .07533333 .158 .085999999 C .17333335 .096666667 .18733335 .11833333 .2 .151 L .22600001 .216 L .176 .335 L .017 .71500006 L .108 .71500006 L .23300001 .389 L .26400004 .3 L .30000005 .39900003 L .41700004 .71500006 L .503 .71500006 Z "/>
</symbol>
<use xlink:href="#font_0_a2" transform="matrix(48,0,0,-48,1020.91946,568.8252)" fill="#131316"/>
<use xlink:href="#font_0_1a5" transform="matrix(48,0,0,-48,1048.3754,569.3052)" fill="#131316"/>
<use xlink:href="#font_0_13c" transform="matrix(48,0,0,-48,1062.1178,569.3052)" fill="#131316"/>
<use xlink:href="#font_0_21b" transform="matrix(48,0,0,-48,1084.6394,579.1452)" fill="#131316"/>
<use xlink:href="#font_0_167" transform="matrix(48,0,0,-48,1111.0155,569.3052)" fill="#131316"/>
<use xlink:href="#font_0_1e0" transform="matrix(48,0,0,-48,1139.4795,568.8252)" fill="#131316"/>
<use xlink:href="#font_0_1e8" transform="matrix(48,0,0,-48,1156.0348,569.3052)" fill="#131316"/>
<path transform="matrix(1,0,0,-1,0,1080)" stroke-width="1" stroke-linecap="butt" stroke-miterlimit="10" stroke-linejoin="miter" fill="none" stroke="#131316" d="M 836.855 409.349 L 188.85596 409.349 L 188.85596 480.879 L 836.855 480.879 Z "/>
<path transform="matrix(1,0,0,-1,0,1080)" stroke-width="1" stroke-linecap="butt" stroke-miterlimit="10" stroke-linejoin="miter" fill="none" stroke="#131316" d="M 1667.862 409.349 L 1019.86306 409.349 L 1019.86306 480.879 L 1667.862 480.879 Z "/>
<path transform="matrix(1,0,0,-1,0,1080)" d="M 188.856 48.437 L 836.85507 48.437 L 836.85507 364.307 L 188.856 364.307 Z " fill="#d3d3d3"/>
<path transform="matrix(1,0,0,-1,0,1080)" d="M 1019.863 48.437 L 1667.862 48.437 L 1667.862 364.307 L 1019.863 364.307 Z " fill="#d3d3d3"/>
<path transform="matrix(1,0,0,-1,0,1080)" d="M 1015.735 985.393 L 815.177 985.393 L 815.177 992.361 L 1015.735 992.361 Z " fill="#131316"/>
<path transform="matrix(1,0,0,-1,147.5881,324.7259)" d="M 0 0 L 46.452 -57.677 L 46.452 0 Z " fill="#ffffff"/>
<path transform="matrix(1,0,0,-1,240.4912,324.7259)" d="M 0 0 L -46.452 -57.677 L -46.452 0 Z " fill="#ffffff"/>
<clipPath id="cp2">
<path transform="matrix(1,0,0,-1,0,1080)" d="M 0 1080 L 1920 1080 L 1920 0 L 0 0 Z "/>
</clipPath>
<g clip-path="url(#cp2)">
<g opacity=".279999">
<clipPath id="cp3">
<path transform="matrix(1,0,0,-1,0,1080)" d="M 1132.69 675.62 L 1836.95 675.62 L 1836.95 900.622 L 1132.69 900.622 Z "/>
</clipPath>
<g clip-path="url(#cp3)">
<symbol id="font_4_3a">
<path d="M .6044922 0 L .4555664 0 L .43945313 .5234375 L .17871094 0 L .026855469 0 L 0 .7158203 L .14404297 .7158203 L .15039063 .21484375 L .3959961 .7158203 L .55566409 .7158203 L .5722656 .22021485 L .80810549 .7158203 L .9506836 .7158203 L .6044922 0 Z "/>
</symbol>
<symbol id="font_4_32">
<path d="M 0 .29345704 C 0 .33577476 .0063476564 .3803711 .019042969 .4272461 C .03564453 .49007163 .060872396 .5445964 .09472656 .5908203 C .12890625 .63704428 .171875 .6735026 .22363281 .7001953 C .27539063 .72721359 .3343099 .74072268 .40039063 .74072268 C .48893229 .74072268 .5603841 .7132161 .6147461 .6582031 C .6694336 .6031901 .69677737 .53027346 .69677737 .43945313 C .69677737 .36393229 .67903646 .29085288 .6435547 .22021485 C .60807296 .14957683 .5598958 .095214847 .49902345 .057128908 C .43815104 .019042969 .36930339 0 .29248048 0 C .2257487 0 .16975911 .015136719 .12451172 .045410158 C .07926432 .075683597 .04720052 .11311849 .028320313 .15771485 C .0094401049 .20263672 0 .24788411 0 .29345704 M .14550781 .29638673 C .14550781 .24723308 .16048177 .20605469 .19042969 .17285156 C .22037761 .13964844 .25976563 .123046878 .30859376 .123046878 C .34830729 .123046878 .38639323 .1360677 .42285157 .16210938 C .4596354 .18847656 .48990885 .22819011 .5136719 .28125 C .53776046 .3346354 .5498047 .386556 .5498047 .43701173 C .5498047 .4933268 .53466799 .5374349 .50439456 .56933596 C .4741211 .6015625 .43554688 .6176758 .38867188 .6176758 C .31673179 .6176758 .25813804 .58414718 .21289063 .51708987 C .16796875 .45003257 .14550781 .37646485 .14550781 .29638673 Z "/>
</symbol>
<symbol id="font_4_35">
<path d="M .14746094 0 L 0 0 L .14990235 .7158203 L .46777345 .7158203 C .52246096 .7158203 .5649414 .7101237 .59521487 .69873049 C .6258138 .6876628 .6503906 .66715499 .6689453 .63720706 C .6878255 .6072591 .6972656 .57096359 .6972656 .5283203 C .6972656 .4674479 .67903646 .41715495 .6425781 .3774414 C .6061198 .33805339 .55094406 .3136393 .47705079 .30419923 C .495931 .28727214 .5136719 .26497398 .53027346 .23730469 C .56315109 .18131511 .59977218 .10221354 .6401367 0 L .4819336 0 C .46923829 .040364583 .44433595 .10335287 .40722657 .18896485 C .38704429 .2351888 .3655599 .26627604 .34277345 .28222657 C .32877604 .29166667 .30436198 .29638673 .26953126 .29638673 L .20947266 .29638673 L .14746094 0 M .2319336 .4038086 L .3100586 .4038086 C .38916017 .4038086 .441569 .40852867 .46728517 .41796876 C .4933268 .42740885 .5136719 .44222007 .5283203 .46240235 C .54296877 .48258464 .55029299 .50374349 .55029299 .5258789 C .55029299 .5519206 .53971359 .57145187 .5185547 .58447268 C .5055339 .59228518 .4773763 .5961914 .43408204 .5961914 L .27197267 .5961914 L .2319336 .4038086 Z "/>
</symbol>
<symbol id="font_4_2e">
<path d="M 0 0 L .14941406 .7158203 L .296875 .7158203 L .23339844 .4116211 L .5644531 .7158203 L .76171877 .7158203 L .4404297 .4350586 L .67626956 0 L .5097656 0 L .3330078 .3408203 L .19384766 .21923828 L .14794922 0 L 0 0 Z "/>
</symbol>
<symbol id="font_4_3">
<path d="M -2147483500 -2147483500 Z "/>
</symbol>
<symbol id="font_4_2c">
<path d="M 0 0 L .14990235 .7158203 L .296875 .7158203 L .14746094 0 L 0 0 Z "/>
</symbol>
<symbol id="font_4_31">
<path d="M .5683594 0 L .43115235 0 L .23779297 .48095704 L .13720703 0 L 0 0 L .14941406 .7158203 L .28710938 .7158203 L .48095704 .2368164 L .5810547 .7158203 L .71777346 .7158203 L .5683594 0 Z "/>
</symbol>
<symbol id="font_4_33">
<path d="M .14746094 0 L 0 0 L .14990235 .7158203 L .44091798 .7158203 C .49267579 .7158203 .5335286 .70963546 .56347659 .6972656 C .59375 .6852214 .6176758 .66503909 .6352539 .63671877 C .65283206 .60872396 .6616211 .5751953 .6616211 .5361328 C .6616211 .5 .6546224 .46484376 .640625 .43066407 C .6266276 .39648438 .609375 .36914063 .5888672 .3486328 C .5686849 .328125 .546875 .3125 .5234375 .3017578 C .5 .29134117 .46842448 .28336589 .42871095 .27783204 C .40559898 .2745768 .3623047 .27294923 .29882813 .27294923 L .20458985 .27294923 L .14746094 0 M .2290039 .39160157 L .27441407 .39160157 C .35221354 .39160157 .40413413 .39648438 .43017579 .40625 C .45621745 .41601563 .47672526 .43164063 .49169923 .453125 C .50667318 .47460938 .51416018 .49820964 .51416018 .5239258 C .51416018 .5411784 .5102539 .55533859 .5024414 .56640627 C .49495445 .57747396 .48421226 .5854492 .47021485 .59033206 C .45654298 .59554037 .42578126 .59814456 .3779297 .59814456 L .27246095 .59814456 L .2290039 .39160157 Z "/>
</symbol>
<symbol id="font_4_2a">
<path d="M .35107423 .39453126 L .6713867 .39453126 L .6069336 .087402347 C .56917318 .06298828 .52278646 .042317708 .46777345 .025390625 C .41308595 .008463542 .35725913 0 .30029298 0 C .2117513 0 .1438802 .020019532 .09667969 .060058595 C .032226564 .114746097 0 .19401042 0 .29785157 C 0 .36751304 .013834636 .43424479 .041503908 .49804688 C .07470703 .5748698 .121907558 .6344401 .18310547 .6767578 C .24430339 .7190755 .3162435 .7402344 .39892579 .7402344 C .48160807 .7402344 .54785159 .7210286 .59765627 .6826172 C .64778646 .64420577 .68098959 .5882161 .6972656 .51464846 L .5600586 .49902345 C .54801437 .539388 .5284831 .5698242 .50146487 .59033206 C .47477214 .61083987 .44108073 .62109377 .40039063 .62109377 C .3528646 .62109377 .30924479 .60872396 .26953126 .5839844 C .2298177 .5592448 .19873047 .5209961 .17626953 .46923829 C .1538086 .41748048 .14257813 .3610026 .14257813 .2998047 C .14257813 .23958333 .15625 .19498699 .18359375 .16601563 C .2109375 .1373698 .25097657 .123046878 .30371095 .123046878 C .33528648 .123046878 .36767579 .1274414 .4008789 .13623047 C .43408204 .14534505 .46272788 .15608724 .4868164 .16845703 L .50878909 .27490235 L .32617188 .27490235 L .35107423 .39453126 Z "/>
</symbol>
<symbol id="font_4_28">
<path d="M 0 0 L .14941406 .7158203 L .6801758 .7158203 L .65527346 .5961914 L .27197267 .5961914 L .23779297 .43359376 L .60839846 .43359376 L .5834961 .31396485 L .21289063 .31396485 L .16796875 .119628909 L .58447268 .119628909 L .55908206 0 L 0 0 Z "/>
</symbol>
<symbol id="font_4_36">
<path d="M .0013020821 .24414063 L .1414388 .25146485 C .14339192 .20686849 .15104167 .17675781 .16438802 .16113281 C .18587239 .13574219 .22558594 .123046878 .28352867 .123046878 C .33170573 .123046878 .36653648 .13167317 .38802085 .14892578 C .40950523 .16617839 .4202474 .18701172 .4202474 .21142578 C .4202474 .23258464 .41145835 .25048829 .39388023 .26513673 C .3815104 .2758789 .3474935 .29329429 .29182945 .3173828 C .23649089 .34147135 .19596355 .36149089 .17024739 .3774414 C .14485677 .39371745 .12483724 .41471354 .1101888 .4404297 C .09554037 .46614585 .08821615 .4962565 .08821614 .5307617 C .08821615 .5909831 .11002604 .6409505 .15364583 .68066409 C .19726563 .7203776 .26041667 .7402344 .34309898 .7402344 C .42708335 .7402344 .49202476 .72054037 .53792318 .68115237 C .58414718 .64176437 .6095378 .58935549 .61409506 .5239258 L .47298179 .5175781 C .46940104 .5517578 .45703126 .5779622 .4358724 .5961914 C .41471354 .6144206 .38346354 .62353518 .3421224 .62353518 C .30143229 .62353518 .2722982 .6163737 .25472007 .6020508 C .23746746 .58772787 .22884114 .56966146 .22884114 .54785159 C .22884114 .52734377 .2368164 .5104167 .25276695 .4970703 C .26871745 .48339845 .30403648 .464681 .35872398 .44091798 C .44108073 .4054362 .4934896 .3766276 .5159505 .3544922 C .5494792 .3219401 .56624349 .2801107 .56624349 .2290039 C .56624349 .16585286 .5411784 .111816409 .4910482 .06689453 C .4412435 .022298178 .37174479 0 .2825521 0 C .22102864 0 .16764324 .010253906 .12239583 .030761719 C .07747396 .05159505 .045735677 .08040365 .027180989 .1171875 C .008626301 .15397136 -.0000000012417635 .19628906 .0013020821 .24414063 Z "/>
</symbol>
<symbol id="font_4_f">
<path d="M .061035158 .29052735 L .20214844 .29052735 L .17871094 .17871094 C .16536458 .11425781 .1438802 .0686849 .11425781 .041992189 C .08496094 .014973958 .046875 .0009765625 0 0 L .013671875 .064941409 C .037109376 .07014974 .05517578 .079589847 .067871097 .09326172 C .08089193 .10660807 .09049479 .12727864 .09667969 .15527344 L .032226564 .15527344 L .061035158 .29052735 Z "/>
</symbol>
<symbol id="font_4_38">
<path d="M .099609378 .72802737 L .24658203 .72802737 L .16552735 .33935548 L .14550781 .24365235 C .14420574 .23551433 .14355469 .22786458 .14355469 .22070313 C .14355469 .19238281 .1538086 .16894531 .1743164 .15039063 C .19514974 .13216146 .22526042 .123046878 .26464845 .123046878 C .30013023 .123046878 .3294271 .12972005 .35253907 .1430664 C .37565104 .15641277 .3935547 .17626953 .40625 .20263672 C .4189453 .2290039 .43180339 .27376304 .44482423 .33691407 L .52685549 .72802737 L .6738281 .72802737 L .59228518 .33642579 C .57503256 .254069 .5551758 .19108074 .53271487 .14746094 C .5102539 .10384115 .47623698 .068359378 .43066407 .041015626 C .38509117 .013671875 .32747398 0 .2578125 0 C .17447917 0 .110677089 .020345053 .06640625 .061035158 C .022135416 .10205078 0 .15462239 0 .21875 C 0 .23209636 .0011393229 .24658203 .0034179688 .26220704 C .0047200524 .2726237 .010416667 .3022461 .020507813 .35107423 L .099609378 .72802737 Z "/>
</symbol>
<symbol id="font_4_37">
<path d="M .23242188 0 L .08496094 0 L .20996094 .5961914 L 0 .5961914 L .024902344 .7158203 L .5888672 .7158203 L .56396487 .5961914 L .3569336 .5961914 L .23242188 0 Z "/>
</symbol>
<symbol id="font_4_2f">
<path d="M 0 0 L .14990235 .7158203 L .296875 .7158203 L .17236328 .119628909 L .5366211 .119628909 L .51171877 0 L 0 0 Z "/>
</symbol>
<symbol id="font_4_12">
<path d="M 0 0 L .3544922 .7402344 L .45214845 .7402344 L .09814453 0 L 0 0 Z "/>
</symbol>
<symbol id="font_4_2b">
<path d="M .49121095 .31982423 L .21435547 .31982423 L .14746094 0 L 0 0 L .14990235 .7158203 L .296875 .7158203 L .23925781 .43945313 L .5161133 .43945313 L .57421877 .7158203 L .7211914 .7158203 L .57177737 0 L .4243164 0 L .49121095 .31982423 Z "/>
</symbol>
<symbol id="font_4_24">
<path d="M .5209961 .15820313 L .23730469 .15820313 L .15136719 0 L 0 0 L .40478517 .7158203 L .5683594 .7158203 L .6845703 0 L .5449219 0 L .5209961 .15820313 M .5029297 .27734376 L .46142579 .5654297 L .28857423 .27734376 L .5029297 .27734376 Z "/>
</symbol>
<symbol id="font_4_26">
<path d="M .46484376 .2705078 L .61328127 .24804688 C .5843099 .16764324 .54085287 .10611979 .48291017 .06347656 C .42496745 .021158854 .35709635 0 .27929688 0 C .19173177 0 .12320963 .026367188 .07373047 .07910156 C .024576823 .13183594 0 .20833333 0 .30859376 C 0 .38997398 .016438803 .46435548 .049316408 .5317383 C .08251953 .5994466 .12841797 .6512044 .18701172 .6870117 C .24560547 .72281906 .30940757 .74072268 .37841798 .74072268 C .45589195 .74072268 .5185547 .71988937 .56640627 .67822268 C .6142578 .63688156 .64241537 .5804036 .6508789 .50878909 L .5097656 .4951172 C .5019531 .5367839 .4868164 .56689456 .46435548 .5854492 C .44222007 .6043294 .41259767 .61376956 .37548829 .61376956 C .3347982 .61376956 .29671226 .6013997 .26123048 .57666018 C .22607422 .5519206 .19791667 .5131836 .17675781 .46044923 C .15559896 .40804038 .14501953 .3556315 .14501953 .30322267 C .14501953 .24593099 .1586914 .20166016 .18603516 .17041016 C .21370442 .13916016 .24804688 .123535159 .2890625 .123535159 C .32714845 .123535159 .36197917 .13590496 .3935547 .16064453 C .42545573 .18538411 .44921876 .2220052 .46484376 .2705078 Z "/>
</symbol>
<symbol id="font_4_3c">
<path d="M .2861328 0 L .13916016 0 L .19726563 .2788086 L 0 .7158203 L .15673828 .7158203 L .24560547 .5136719 C .2667643 .46516929 .28092448 .43017579 .28808595 .4086914 C .30013023 .42985026 .3141276 .4523112 .33007813 .47607423 L .39794923 .5708008 L .49902345 .7158203 L .6699219 .7158203 L .34179688 .26513673 L .2861328 0 Z "/>
</symbol>
<use xlink:href="#font_4_3a" transform="matrix(31.2145,8.3885,8.3885,-31.2145,1139.5042,207.13312)" fill="#ff00f3"/>
<use xlink:href="#font_4_32" transform="matrix(31.2145,8.3885,8.3885,-31.2145,1167.9343,215.1983)" fill="#ff00f3"/>
<use xlink:href="#font_4_35" transform="matrix(31.2145,8.3885,8.3885,-31.2145,1190.9692,220.96373)" fill="#ff00f3"/>
<use xlink:href="#font_4_2e" transform="matrix(31.2145,8.3885,8.3885,-31.2145,1213.3689,226.98339)" fill="#ff00f3"/>
<use xlink:href="#font_4_3" transform="matrix(31.2145,8.3885,8.3885,-31.2145,85046790000,-49018464000)" fill="#ff00f3"/>
<use xlink:href="#font_4_2c" transform="matrix(31.2145,8.3885,8.3885,-31.2145,1244.431,235.33098)" fill="#ff00f3"/>
<use xlink:href="#font_4_31" transform="matrix(31.2145,8.3885,8.3885,-31.2145,1253.4287,237.74903)" fill="#ff00f3"/>
<use xlink:href="#font_4_3" transform="matrix(31.2145,8.3885,8.3885,-31.2145,85046790000,-49018464000)" fill="#ff00f3"/>
<use xlink:href="#font_4_33" transform="matrix(31.2145,8.3885,8.3885,-31.2145,1284.506,246.10071)" fill="#ff00f3"/>
<use xlink:href="#font_4_35" transform="matrix(31.2145,8.3885,8.3885,-31.2145,1305.4328,251.72454)" fill="#ff00f3"/>
<use xlink:href="#font_4_32" transform="matrix(31.2145,8.3885,8.3885,-31.2145,1329.2196,258.54188)" fill="#ff00f3"/>
<use xlink:href="#font_4_2a" transform="matrix(31.2145,8.3885,8.3885,-31.2145,1353.5391,265.06108)" fill="#ff00f3"/>
<use xlink:href="#font_4_35" transform="matrix(31.2145,8.3885,8.3885,-31.2145,1376.5394,270.83354)" fill="#ff00f3"/>
<use xlink:href="#font_4_28" transform="matrix(31.2145,8.3885,8.3885,-31.2145,1398.9849,276.86549)" fill="#ff00f3"/>
<use xlink:href="#font_4_36" transform="matrix(31.2145,8.3885,8.3885,-31.2145,1420.363,283.01918)" fill="#ff00f3"/>
<use xlink:href="#font_4_36" transform="matrix(31.2145,8.3885,8.3885,-31.2145,1441.1831,288.61433)" fill="#ff00f3"/>
<use xlink:href="#font_4_f" transform="matrix(31.2145,8.3885,8.3885,-31.2145,1459.1824,298.2397)" fill="#ff00f3"/>
<use xlink:href="#font_4_3" transform="matrix(31.2145,8.3885,8.3885,-31.2145,85046790000,-49018464000)" fill="#ff00f3"/>
<use xlink:href="#font_4_32" transform="matrix(31.2145,8.3885,8.3885,-31.2145,1480.1417,299.1004)" fill="#ff00f3"/>
<use xlink:href="#font_4_38" transform="matrix(31.2145,8.3885,8.3885,-31.2145,1504.5527,305.64418)" fill="#ff00f3"/>
<use xlink:href="#font_4_37" transform="matrix(31.2145,8.3885,8.3885,-31.2145,1528.0912,311.5613)" fill="#ff00f3"/>
<use xlink:href="#font_4_2f" transform="matrix(31.2145,8.3885,8.3885,-31.2145,1544.816,316.0559)" fill="#ff00f3"/>
<use xlink:href="#font_4_2c" transform="matrix(31.2145,8.3885,8.3885,-31.2145,1563.568,321.09526)" fill="#ff00f3"/>
<use xlink:href="#font_4_31" transform="matrix(31.2145,8.3885,8.3885,-31.2145,1572.5657,323.5133)" fill="#ff00f3"/>
<use xlink:href="#font_4_28" transform="matrix(31.2145,8.3885,8.3885,-31.2145,1594.9806,329.53706)" fill="#ff00f3"/>
<use xlink:href="#font_4_3" transform="matrix(31.2145,8.3885,8.3885,-31.2145,85046790000,-49018464000)" fill="#ff00f3"/>
<use xlink:href="#font_4_12" transform="matrix(31.2145,8.3885,8.3885,-31.2145,1621.7391,337.1367)" fill="#ff00f3"/>
<use xlink:href="#font_4_3" transform="matrix(31.2145,8.3885,8.3885,-31.2145,85046790000,-49018464000)" fill="#ff00f3"/>
<use xlink:href="#font_4_2b" transform="matrix(31.2145,8.3885,8.3885,-31.2145,1641.9097,342.14878)" fill="#ff00f3"/>
<use xlink:href="#font_4_2c" transform="matrix(31.2145,8.3885,8.3885,-31.2145,1664.1723,348.13157)" fill="#ff00f3"/>
<use xlink:href="#font_4_28" transform="matrix(31.2145,8.3885,8.3885,-31.2145,1673.048,350.51686)" fill="#ff00f3"/>
<use xlink:href="#font_4_35" transform="matrix(31.2145,8.3885,8.3885,-31.2145,1693.9595,356.13658)" fill="#ff00f3"/>
<use xlink:href="#font_4_24" transform="matrix(31.2145,8.3885,8.3885,-31.2145,1714.774,361.73027)" fill="#ff00f3"/>
<use xlink:href="#font_4_35" transform="matrix(31.2145,8.3885,8.3885,-31.2145,1739.0332,368.2496)" fill="#ff00f3"/>
<use xlink:href="#font_4_26" transform="matrix(31.2145,8.3885,8.3885,-31.2145,1763.0487,375.1284)" fill="#ff00f3"/>
<use xlink:href="#font_4_2b" transform="matrix(31.2145,8.3885,8.3885,-31.2145,1784.0917,380.35856)" fill="#ff00f3"/>
<use xlink:href="#font_4_3c" transform="matrix(31.2145,8.3885,8.3885,-31.2145,1808.8539,387.0131)" fill="#ff00f3"/>
</g>
</g>
<g opacity=".100006">
<clipPath id="cp5">
<path transform="matrix(1,0,0,-1,0,1080)" d="M 422.95 639.62 L 1127.21 639.62 L 1127.21 864.622 L 422.95 864.622 Z "/>
</clipPath>
<g clip-path="url(#cp5)">
<use xlink:href="#font_4_3a" transform="matrix(31.2145,8.3885,8.3885,-31.2145,429.76676,243.13312)" fill="#ff00f3"/>
<use xlink:href="#font_4_32" transform="matrix(31.2145,8.3885,8.3885,-31.2145,458.19703,251.1983)" fill="#ff00f3"/>
<use xlink:href="#font_4_35" transform="matrix(31.2145,8.3885,8.3885,-31.2145,481.2319,256.9637)" fill="#ff00f3"/>
<use xlink:href="#font_4_2e" transform="matrix(31.2145,8.3885,8.3885,-31.2145,503.6316,262.98338)" fill="#ff00f3"/>
<use xlink:href="#font_4_3" transform="matrix(31.2145,8.3885,8.3885,-31.2145,85046790000,-49018464000)" fill="#ff00f3"/>
<use xlink:href="#font_4_2c" transform="matrix(31.2145,8.3885,8.3885,-31.2145,534.69369,271.33097)" fill="#ff00f3"/>
<use xlink:href="#font_4_31" transform="matrix(31.2145,8.3885,8.3885,-31.2145,543.69137,273.74903)" fill="#ff00f3"/>
<use xlink:href="#font_4_3" transform="matrix(31.2145,8.3885,8.3885,-31.2145,85046790000,-49018464000)" fill="#ff00f3"/>
<use xlink:href="#font_4_33" transform="matrix(31.2145,8.3885,8.3885,-31.2145,574.7686,282.1007)" fill="#ff00f3"/>
<use xlink:href="#font_4_35" transform="matrix(31.2145,8.3885,8.3885,-31.2145,595.6954,287.72453)" fill="#ff00f3"/>
<use xlink:href="#font_4_32" transform="matrix(31.2145,8.3885,8.3885,-31.2145,619.48226,294.54188)" fill="#ff00f3"/>
<use xlink:href="#font_4_2a" transform="matrix(31.2145,8.3885,8.3885,-31.2145,643.80178,301.06108)" fill="#ff00f3"/>
<use xlink:href="#font_4_35" transform="matrix(31.2145,8.3885,8.3885,-31.2145,666.80209,306.83354)" fill="#ff00f3"/>
<use xlink:href="#font_4_28" transform="matrix(31.2145,8.3885,8.3885,-31.2145,689.2475,312.86549)" fill="#ff00f3"/>
<use xlink:href="#font_4_36" transform="matrix(31.2145,8.3885,8.3885,-31.2145,710.6256,319.01918)" fill="#ff00f3"/>
<use xlink:href="#font_4_36" transform="matrix(31.2145,8.3885,8.3885,-31.2145,731.4457,324.61433)" fill="#ff00f3"/>
<use xlink:href="#font_4_f" transform="matrix(31.2145,8.3885,8.3885,-31.2145,749.445,334.2397)" fill="#ff00f3"/>
<use xlink:href="#font_4_3" transform="matrix(31.2145,8.3885,8.3885,-31.2145,85046790000,-49018464000)" fill="#ff00f3"/>
<use xlink:href="#font_4_32" transform="matrix(31.2145,8.3885,8.3885,-31.2145,770.40438,335.1004)" fill="#ff00f3"/>
<use xlink:href="#font_4_38" transform="matrix(31.2145,8.3885,8.3885,-31.2145,794.8153,341.64418)" fill="#ff00f3"/>
<use xlink:href="#font_4_37" transform="matrix(31.2145,8.3885,8.3885,-31.2145,818.3538,347.5613)" fill="#ff00f3"/>
<use xlink:href="#font_4_2f" transform="matrix(31.2145,8.3885,8.3885,-31.2145,835.07876,352.0559)" fill="#ff00f3"/>
<use xlink:href="#font_4_2c" transform="matrix(31.2145,8.3885,8.3885,-31.2145,853.83078,357.09526)" fill="#ff00f3"/>
<use xlink:href="#font_4_31" transform="matrix(31.2145,8.3885,8.3885,-31.2145,862.8284,359.5133)" fill="#ff00f3"/>
<use xlink:href="#font_4_28" transform="matrix(31.2145,8.3885,8.3885,-31.2145,885.24337,365.53706)" fill="#ff00f3"/>
<use xlink:href="#font_4_3" transform="matrix(31.2145,8.3885,8.3885,-31.2145,85046790000,-49018464000)" fill="#ff00f3"/>
<use xlink:href="#font_4_12" transform="matrix(31.2145,8.3885,8.3885,-31.2145,912.0019,373.1367)" fill="#ff00f3"/>
<use xlink:href="#font_4_3" transform="matrix(31.2145,8.3885,8.3885,-31.2145,85046790000,-49018464000)" fill="#ff00f3"/>
<use xlink:href="#font_4_2b" transform="matrix(31.2145,8.3885,8.3885,-31.2145,932.1725,378.14878)" fill="#ff00f3"/>
<use xlink:href="#font_4_2c" transform="matrix(31.2145,8.3885,8.3885,-31.2145,954.435,384.13157)" fill="#ff00f3"/>
<use xlink:href="#font_4_28" transform="matrix(31.2145,8.3885,8.3885,-31.2145,963.3107,386.51686)" fill="#ff00f3"/>
<use xlink:href="#font_4_35" transform="matrix(31.2145,8.3885,8.3885,-31.2145,984.2222,392.13658)" fill="#ff00f3"/>
<use xlink:href="#font_4_24" transform="matrix(31.2145,8.3885,8.3885,-31.2145,1005.03689,397.73027)" fill="#ff00f3"/>
<use xlink:href="#font_4_35" transform="matrix(31.2145,8.3885,8.3885,-31.2145,1029.296,404.2496)" fill="#ff00f3"/>
<use xlink:href="#font_4_26" transform="matrix(31.2145,8.3885,8.3885,-31.2145,1053.3115,411.1284)" fill="#ff00f3"/>
<use xlink:href="#font_4_2b" transform="matrix(31.2145,8.3885,8.3885,-31.2145,1074.3545,416.35856)" fill="#ff00f3"/>
<use xlink:href="#font_4_3c" transform="matrix(31.2145,8.3885,8.3885,-31.2145,1099.1167,423.0131)" fill="#ff00f3"/>
</g>
</g>
</g>
</g>
</g>
</g>
</svg>
