<?xml version="1.0" encoding="UTF-8" standalone="no"?>
<!DOCTYPE svg PUBLIC "-//W3C//DTD SVG 1.1//EN" "http://www.w3.org/Graphics/SVG/1.1/DTD/svg11.dtd">
<svg xmlns="http://www.w3.org/2000/svg" xmlns:xlink="http://www.w3.org/1999/xlink" version="1.1" width="1920pt" height="1080pt" viewBox="0 0 1920 1080">
<g enable-background="new">
<g>
<g id="Layer-1" data-name="Layer 1">
<symbol id="font_0_ad">
<path d="M .277 .68 C .335 .68 .385 .668 .42700003 .644 C .469 .6206667 .504 .586 .53200009 .54 L .465 .488 C .44033335 .5306667 .41233335 .56066676 .381 .578 C .35033334 .596 .313 .605 .269 .605 C .23366666 .605 .20433335 .6 .18100001 .59000006 C .15833335 .58 .14166668 .56666669 .13100001 .55 C .120333347 .534 .11500001 .51566669 .11500001 .495 C .11500001 .47166667 .12233335 .451 .13700001 .433 C .15166669 .41566668 .18100001 .40200005 .22500001 .39200003 L .368 .36 C .43133334 .34600006 .47533337 .32466669 .50000008 .296 C .5253334 .268 .53800007 .233 .53800007 .19100002 C .53800007 .15366668 .5273334 .12033334 .50600007 .091 C .48533336 .062333336 .456 .040000004 .418 .024 C .38 .008 .33533336 0 .284 0 C .23600002 0 .1936667 .006333334 .157 .019000002 C .121000017 .032333334 .09000001 .05 .06400001 .072000008 C .038000008 .094000007 .016666668 .11866667 0 .14600002 L .07000001 .20300001 C .08266667 .17766667 .099 .15533334 .119 .136 C .139 .116666678 .163 .10166667 .19100002 .091 C .21966668 .08033333 .25233335 .075 .289 .075 C .32299999 .075 .35233335 .079 .377 .087000008 C .40233336 .09566667 .4216667 .108 .435 .124000009 C .44833336 .14066668 .455 .16066669 .455 .18400002 C .455 .20533335 .44800005 .22433335 .43400003 .24100001 C .42 .25833334 .39366666 .27133335 .35500003 .28 L .20000002 .315 C .15933335 .32433335 .12633334 .337 .10100001 .35300002 C .076333347 .3696667 .05833334 .38900004 .047000003 .411 C .036333335 .4336667 .030999998 .45800004 .031 .48400004 C .030999998 .51933339 .04066667 .5516667 .060000007 .58100005 C .080000009 .61100009 .10833334 .63500007 .14500001 .653 C .18233335 .671 .22633334 .68 .277 .68 Z "/>
</symbol>
<symbol id="font_0_a4">
<path d="M .46600003 0 C .432 0 .4 .006333331 .37 .018999994 C .34 .031666668 .31533335 .05333333 .296 .084 C .27733336 .11466666 .268 .15666667 .268 .21000001 C .268 .216 .268 .22233336 .268 .229 C .26866666 .23633333 .26933334 .24333334 .27000005 .25 L .34100003 .24800001 C .34033338 .24133335 .3396667 .23500002 .339 .229 C .339 .22366667 .339 .21833335 .339 .21300002 C .339 .17500001 .345 .14666666 .357 .128 C .369 .10933334 .38466669 .097 .40400005 .091000009 C .42400003 .08433334 .44533334 .081 .468 .081 C .49266664 .081 .51533338 .08433334 .536 .091000009 C .5566667 .09766667 .5733333 .10666666 .586 .118 L .612 .044 C .596 .030000002 .57366666 .019333333 .545 .0119999949 C .517 .0039999985 .49066673 0 .46600003 0 M .306 .865 C .36866669 .865 .4226667 .851 .468 .823 C .514 .7956667 .54933336 .75666669 .574 .70600005 C .59933337 .65533336 .612 .595 .612 .52500006 C .612 .455 .59933337 .39466668 .574 .344 C .54933336 .29333333 .514 .254 .468 .22600001 C .4226667 .19866668 .36866669 .185 .306 .185 C .24333334 .185 .18900001 .19866668 .143 .22600001 C .09766667 .254 .062333336 .29333333 .037 .344 C .0123333339 .39466668 0 .455 0 .52500006 C 0 .595 .0123333339 .65533336 .037 .70600005 C .062333336 .75666669 .09766667 .7956667 .143 .823 C .18900001 .851 .24333334 .865 .306 .865 M .306 .79 C .2606667 .79 .22133334 .77933338 .18800001 .758 C .15466668 .7373333 .12900001 .707 .111 .66700008 C .093 .6276667 .084000017 .5803334 .08400001 .52500006 C .084000017 .46966673 .093 .42200003 .111 .38200004 C .12900001 .34266673 .15466668 .31233336 .18800001 .291 C .22133334 .27033336 .2606667 .26000003 .306 .26000003 C .352 .26000003 .39133335 .27033336 .42400003 .291 C .45733337 .31233336 .48300005 .34266673 .501 .38200004 C .519 .42200003 .528 .46966673 .528 .52500006 C .528 .5803334 .519 .6276667 .501 .66700008 C .48300005 .707 .45733337 .7373333 .42400003 .758 C .39133335 .77933338 .352 .79 .306 .79 Z "/>
</symbol>
<symbol id="font_0_c1">
<path d="M .518 .67 L .518 .256 C .518 .17133336 .49566666 .10733334 .451 .064 C .40633337 .021333335 .34233336 0 .259 0 C .17633333 0 .11233333 .021333335 .066999997 .064 C .022333332 .10733334 0 .17133336 0 .256 L 0 .67 L .080000009 .67 L .080000009 .276 C .080000009 .20733333 .09433334 .15666668 .123 .124000009 C .15233335 .09133334 .19766669 .075 .259 .075 C .32033334 .075 .36533336 .09133334 .39400003 .124000009 C .42333339 .15666668 .43800006 .20733333 .43800006 .276 L .43800006 .67 L .518 .67 Z "/>
</symbol>
<symbol id="font_0_54">
<path d="M .080000009 .66 L .080000009 0 L 0 0 L 0 .66 L .080000009 .66 Z "/>
</symbol>
<symbol id="font_0_a5">
<path d="M .25 .66 C .31733335 .66 .37133337 .6426667 .41200004 .60800006 C .45266668 .5733334 .47300003 .5263334 .47300003 .467 C .47300003 .40766669 .45233337 .36133338 .41100005 .328 C .37033335 .29533337 .31633336 .279 .24900002 .279 L .24200002 .27400003 L .080000009 .27400003 L .080000009 0 L 0 0 L 0 .66 L .25 .66 M .24900002 .349 C .29633335 .349 .33133338 .35866667 .354 .37800003 C .3773333 .398 .38900004 .42766667 .389 .467 C .38900004 .50633338 .3773333 .5356667 .354 .555 C .33133338 .57500007 .29633335 .58500006 .24900002 .58500006 L .080000009 .58500006 L .080000009 .349 L .24900002 .349 M .29500003 .333 L .5130001 0 L .418 0 L .22800002 .289 L .29500003 .333 Z "/>
</symbol>
<symbol id="font_0_2e">
<path d="M 0 0 L 0 .66 L .46300004 .66 L .46300004 .58500006 L .080000009 .58500006 L .080000009 .372 L .37800003 .372 L .37800003 .29700003 L .080000009 .29700003 L .080000009 .075 L .47800002 .075 L .47800002 0 L 0 0 Z "/>
</symbol>
<use xlink:href="#font_0_ad" transform="matrix(56.0746,0,0,-56.0746,1079.9533,623.5207)" fill="#131316"/>
<use xlink:href="#font_0_a4" transform="matrix(56.0746,0,0,-56.0746,1121.841,633.89456)" fill="#131316"/>
<use xlink:href="#font_0_c1" transform="matrix(56.0746,0,0,-56.0746,1168.8875,623.5207)" fill="#131316"/>
<use xlink:href="#font_0_54" transform="matrix(56.0746,0,0,-56.0746,1213.7976,622.95999)" fill="#131316"/>
<use xlink:href="#font_0_a5" transform="matrix(56.0746,0,0,-56.0746,1234.5452,622.95999)" fill="#131316"/>
<use xlink:href="#font_0_2e" transform="matrix(56.0746,0,0,-56.0746,1276.0236,622.95999)" fill="#131316"/>
<clipPath id="cp1">
<path transform="matrix(1,0,0,-1,0,1080)" d="M 0 1080 L 1920 1080 L 1920 0 L 0 0 Z "/>
</clipPath>
<g clip-path="url(#cp1)">
<path transform="matrix(1,0,0,-1,1298.9473,671.0374)" stroke-width="2.1" stroke-linecap="butt" stroke-miterlimit="10" stroke-linejoin="miter" fill="none" stroke="#131316" d="M 0 0 L -69.036 0 C -71.18 0 -72.918 1.738 -72.918 3.883 L -72.918 28.214 C -72.918 30.358 -71.18 32.096 -69.036 32.096 L 0 32.096 C 2.144 32.096 3.883 30.358 3.883 28.214 L 3.883 3.883 C 3.883 1.738 2.144 0 0 0 Z "/>
<path transform="matrix(1,0,0,-1,721.6832,503.581)" d="M 0 0 L -127.669 0 C -130.545 0 -132.876 2.331 -132.876 5.206 L -132.876 26.89 C -132.876 29.766 -130.545 32.096 -127.669 32.096 L 0 32.096 C 2.875 32.096 5.206 29.766 5.206 26.89 L 5.206 5.206 C 5.206 2.331 2.875 0 0 0 " fill="#131316"/>
</g>
<use xlink:href="#font_0_ad" transform="matrix(56.0746,0,0,-56.0746,504.01179,456.06468)" fill="#131316"/>
<use xlink:href="#font_0_a4" transform="matrix(56.0746,0,0,-56.0746,545.8995,466.43846)" fill="#131316"/>
<use xlink:href="#font_0_c1" transform="matrix(56.0746,0,0,-56.0746,592.9461,456.06468)" fill="#131316"/>
<use xlink:href="#font_0_54" transform="matrix(56.0746,0,0,-56.0746,637.8562,455.5039)" fill="#131316"/>
<use xlink:href="#font_0_a5" transform="matrix(56.0746,0,0,-56.0746,658.6038,455.5039)" fill="#131316"/>
<use xlink:href="#font_0_2e" transform="matrix(56.0746,0,0,-56.0746,700.0822,455.5039)" fill="#131316"/>
<symbol id="font_2_ad">
<path d="M .30100004 .68 C .36100004 .68 .4136667 .6696667 .45900003 .64900007 C .5043333 .6283334 .543 .5976667 .575 .55700007 L .49800007 .46800003 C .47066669 .5026667 .44066669 .52800008 .40800003 .544 C .37600003 .5606667 .33866669 .569 .29600004 .569 C .268 .569 .24466668 .56533339 .22600001 .558 C .208 .55066666 .19466667 .541 .18600002 .52900007 C .17800002 .517 .17399998 .5036667 .174 .48900003 C .17399998 .47100006 .181 .4556667 .19500003 .44300003 C .20900004 .431 .23300003 .421 .26700003 .41300003 L .39000003 .38500003 C .45533336 .37033335 .50200006 .34833337 .53000006 .319 C .5586667 .29033334 .573 .253 .573 .20700002 C .573 .16366668 .56166669 .12633334 .539 .095 C .51633337 .064333338 .48466669 .04066667 .44400005 .024 C .40333335 .008 .35666669 0 .30400003 0 C .25800003 0 .2156667 .0053333339 .17700002 .016 C .13900002 .027333336 .10500001 .04266667 .075 .062000004 C .045 .08133333 .020000002 .10366666 0 .12900001 L .078 .22200002 C .093333337 .20066668 .112333338 .18166667 .13500002 .165 C .15766667 .14833336 .18333334 .135 .21200001 .125 C .24133335 .115666668 .272 .111 .30400003 .111 C .33133338 .111 .35433338 .114 .37300004 .120000008 C .39233337 .12666668 .40666674 .13566669 .41600005 .14700002 C .42600004 .15900001 .43100003 .17333335 .43100003 .19000001 C .43100003 .20733334 .42500005 .22200002 .41300003 .23400001 C .40166668 .24666669 .38033334 .25633336 .34900005 .263 L .215 .293 C .17633336 .30233336 .143 .31433336 .115 .329 C .08766667 .34433333 .06666667 .36366666 .052 .387 C .038000004 .411 .031000004 .43933336 .031000004 .472 C .031000004 .51133337 .041666669 .5466667 .063 .578 C .08433334 .60933336 .11500001 .634 .155 .652 C .19566667 .6706667 .24433334 .68 .30100004 .68 Z "/>
</symbol>
<symbol id="font_2_2e">
<path d="M 0 0 L 0 .66 L .49500004 .66 L .49500004 .549 L .13800001 .549 L .13800001 .38500003 L .419 .38500003 L .419 .279 L .13800001 .279 L .13800001 .11100001 L .509 .11100001 L .509 0 L 0 0 Z "/>
</symbol>
<symbol id="font_2_a5">
<path d="M .291 .66 C .36566673 .66 .42433337 .642 .46700005 .606 C .5096667 .57 .531 .5216667 .531 .46100004 C .531 .39633338 .5096667 .3466667 .46700005 .312 C .42433337 .278 .36600004 .261 .29200004 .261 L .27800004 .25300003 L .136 .25300003 L .136 0 L 0 0 L 0 .66 L .291 .66 M .27500005 .358 C .3136667 .358 .34233336 .36566667 .36100004 .381 C .38033334 .39700005 .39000003 .42133335 .39000003 .45400004 C .39000003 .48666669 .38033334 .51066669 .36100004 .526 C .34233336 .542 .3136667 .55 .27500005 .55 L .136 .55 L .136 .358 L .27500005 .358 M .35600005 .32900004 L .57 0 L .41500006 0 L .238 .289 L .35600005 .32900004 Z "/>
</symbol>
<symbol id="font_2_d8">
<path d="M .642 .66 L .402 0 L .24100003 0 L 0 .66 L .14600002 .66 L .28500004 .24000001 L .323 .11000001 L .36 .23900001 L .5 .66 L .642 .66 Z "/>
</symbol>
<symbol id="font_2_54">
<path d="M .13800001 .66 L .13800001 0 L 0 0 L 0 .66 L .13800001 .66 Z "/>
</symbol>
<symbol id="font_2_1d">
<path d="M .59800007 .19200002 C .58533337 .14933335 .5653333 .113666679 .538 .085 C .51066669 .056333335 .47833336 .035 .441 .021000002 C .4036667 .0070000009 .3626667 0 .31800003 0 C .25266669 0 .196 .013666667 .148 .041 C .10066667 .068333338 .064 .10733334 .038000004 .158 C .012666668 .20866668 0 .26933334 0 .34 C 0 .41066668 .012666668 .47133336 .038000004 .522 C .064 .57266667 .10066667 .6116667 .148 .639 C .196 .6663334 .252 .68 .316 .68 C .36133335 .68 .40233336 .67366668 .439 .661 C .47566668 .649 .5066667 .63000008 .53200009 .60400006 C .558 .5786667 .57699999 .547 .589 .509 L .46400003 .456 C .45266668 .49600003 .43533335 .52433338 .41200004 .541 C .38866667 .55833336 .35866667 .56700006 .32200004 .56700006 C .286 .56700006 .25433336 .55833336 .227 .541 C .20033334 .5236667 .17966669 .498 .165 .46400003 C .15033335 .4306667 .143 .38933335 .143 .34 C .143 .29133333 .14966667 .25 .163 .21600002 C .177 .182 .19733334 .15633334 .224 .13900002 C .25066666 .12166667 .28333334 .113000009 .32200004 .113000009 C .35800005 .113000009 .38900004 .12266668 .41500003 .142 C .4416667 .16133334 .46033336 .19066668 .47100006 .23000002 L .59800007 .19200002 Z "/>
</symbol>
<use xlink:href="#font_2_ad" transform="matrix(17,0,0,-17,606.96646,493.1495)" fill="#ffffff"/>
<use xlink:href="#font_2_2e" transform="matrix(17,0,0,-17,621.6884,492.9795)" fill="#ffffff"/>
<use xlink:href="#font_2_a5" transform="matrix(17,0,0,-17,635.2034,492.9795)" fill="#ffffff"/>
<use xlink:href="#font_2_d8" transform="matrix(17,0,0,-17,648.04696,492.9795)" fill="#ffffff"/>
<use xlink:href="#font_2_54" transform="matrix(17,0,0,-17,663.3979,492.9795)" fill="#ffffff"/>
<use xlink:href="#font_2_1d" transform="matrix(17,0,0,-17,670.7912,493.1495)" fill="#ffffff"/>
<use xlink:href="#font_2_2e" transform="matrix(17,0,0,-17,685.6305,492.9795)" fill="#ffffff"/>
<use xlink:href="#font_2_ad" transform="matrix(17,0,0,-17,698.4197,493.1495)" fill="#ffffff"/>
<clipPath id="cp3">
<path transform="matrix(1,0,0,-1,0,1080)" d="M 0 1080 L 1920 1080 L 1920 0 L 0 0 Z "/>
</clipPath>
<g clip-path="url(#cp3)">
<path transform="matrix(1,0,0,-1,1294.8766,503.581)" stroke-width="2.1" stroke-linecap="butt" stroke-miterlimit="10" stroke-linejoin="miter" fill="none" stroke="#131316" d="M 0 0 L -127.669 0 C -130.545 0 -132.876 2.331 -132.876 5.206 L -132.876 26.89 C -132.876 29.766 -130.545 32.096 -127.669 32.096 L 0 32.096 C 2.875 32.096 5.206 29.766 5.206 26.89 L 5.206 5.206 C 5.206 2.331 2.875 0 0 0 Z "/>
</g>
<use xlink:href="#font_2_ad" transform="matrix(17,0,0,-17,1180.1598,493.1495)" fill="#131316"/>
<use xlink:href="#font_2_2e" transform="matrix(17,0,0,-17,1194.8818,492.9795)" fill="#131316"/>
<use xlink:href="#font_2_a5" transform="matrix(17,0,0,-17,1208.3969,492.9795)" fill="#131316"/>
<use xlink:href="#font_2_d8" transform="matrix(17,0,0,-17,1221.2404,492.9795)" fill="#131316"/>
<use xlink:href="#font_2_54" transform="matrix(17,0,0,-17,1236.5914,492.9795)" fill="#131316"/>
<use xlink:href="#font_2_1d" transform="matrix(17,0,0,-17,1243.9848,493.1495)" fill="#131316"/>
<use xlink:href="#font_2_2e" transform="matrix(17,0,0,-17,1258.8241,492.9795)" fill="#131316"/>
<use xlink:href="#font_2_ad" transform="matrix(17,0,0,-17,1271.6132,493.1495)" fill="#131316"/>
<clipPath id="cp4">
<path transform="matrix(1,0,0,-1,0,1080)" d="M 0 1080 L 1920 1080 L 1920 0 L 0 0 Z "/>
</clipPath>
<g clip-path="url(#cp4)">
<path transform="matrix(1,0,0,-1,723.0067,663.83877)" d="M 0 0 L -69.036 0 C -71.18 0 -72.918 1.738 -72.918 3.883 L -72.918 28.214 C -72.918 30.358 -71.18 32.096 -69.036 32.096 L 0 32.096 C 2.144 32.096 3.883 30.358 3.883 28.214 L 3.883 3.883 C 3.883 1.738 2.144 0 0 0 " fill="#131316"/>
</g>
<use xlink:href="#font_0_ad" transform="matrix(56.0746,0,0,-56.0746,504.01179,616.32247)" fill="#131316"/>
<use xlink:href="#font_0_a4" transform="matrix(56.0746,0,0,-56.0746,545.8995,626.6963)" fill="#131316"/>
<use xlink:href="#font_0_c1" transform="matrix(56.0746,0,0,-56.0746,592.9461,616.32247)" fill="#131316"/>
<use xlink:href="#font_0_54" transform="matrix(56.0746,0,0,-56.0746,637.8562,615.7617)" fill="#131316"/>
<use xlink:href="#font_0_a5" transform="matrix(56.0746,0,0,-56.0746,658.6038,615.7617)" fill="#131316"/>
<use xlink:href="#font_0_2e" transform="matrix(56.0746,0,0,-56.0746,700.0822,615.7617)" fill="#131316"/>
<symbol id="font_2_1c">
<path d="M 0 0 L 0 .66 L .28900004 .66 C .36900006 .66 .42800007 .64433339 .46600006 .61300006 C .504 .5816667 .523 .53733339 .523 .48000003 C .523 .4446667 .51233336 .41333334 .49100004 .386 C .4696667 .3586667 .43833337 .34133337 .397 .33400003 L .397 .333 C .44300006 .32633335 .47833339 .30900003 .503 .28100003 C .5276667 .25300003 .54 .21966668 .54 .18100001 C .54 .124333348 .51933339 .080000009 .47800002 .048 C .43733336 .016 .3776667 0 .29900003 0 L 0 0 M .134 .104 L .28700004 .104 C .32433335 .104 .35200004 .11166667 .37000004 .127 C .388 .14233335 .39699999 .16366668 .397 .19100002 C .39699999 .21900003 .388 .24033337 .37000004 .25500003 C .35200004 .26966668 .32433335 .277 .28700004 .277 L .134 .277 L .134 .104 M .134 .38300003 L .27100004 .38300003 C .3436667 .38300003 .38000003 .41133336 .38000003 .46800003 C .38000003 .5246667 .3436667 .55300006 .27100004 .55300006 L .134 .55300006 L .134 .38300003 Z "/>
</symbol>
<symbol id="font_2_7f">
<path d="M .31800003 .68 C .38333337 .68 .43966667 .6663334 .48700003 .639 C .5343333 .6116667 .5706667 .57266667 .5960001 .522 C .62200006 .47133336 .635 .41066668 .635 .34 C .635 .26933334 .62200006 .20866668 .5960001 .158 C .5706667 .10733334 .5343333 .068333338 .48700003 .041 C .43966667 .013666667 .38333337 0 .31800003 0 C .25266669 0 .196 .013666667 .148 .041 C .10066667 .068333338 .064 .10733334 .038000004 .158 C .012666668 .20866668 0 .26933334 0 .34 C 0 .41066668 .012666668 .47133336 .038000004 .522 C .064 .57266667 .10066667 .6116667 .148 .639 C .196 .6663334 .25266669 .68 .31800003 .68 M .31800003 .56700006 C .28133337 .56700006 .24966669 .55833336 .22300002 .541 C .19700003 .5236667 .177 .498 .163 .46400003 C .14966667 .43000005 .143 .38866667 .143 .34 C .143 .29133333 .14966667 .25 .163 .21600002 C .177 .182 .19700003 .15633334 .22300002 .13900002 C .24966669 .12166667 .28133337 .113000009 .31800003 .113000009 C .3546667 .113000009 .38600005 .12166667 .41200004 .13900002 C .438 .15633334 .45766668 .182 .47100006 .21600002 C .485 .25 .492 .29133333 .492 .34 C .492 .38866667 .485 .43000005 .47100006 .46400003 C .45766668 .498 .438 .5236667 .41200004 .541 C .38600005 .55833336 .3546667 .56700006 .31800003 .56700006 Z "/>
</symbol>
<symbol id="font_2_ba">
<path d="M .58100005 .66 L .58100005 .549 L .36 .549 L .36 0 L .22200002 0 L .22200002 .549 L 0 .549 L 0 .66 L .58100005 .66 Z "/>
</symbol>
<use xlink:href="#font_2_1c" transform="matrix(17,0,0,-17,669.6817,653.2373)" fill="#ffffff"/>
<use xlink:href="#font_2_7f" transform="matrix(17,0,0,-17,683.2562,653.4073)" fill="#ffffff"/>
<use xlink:href="#font_2_ba" transform="matrix(17,0,0,-17,697.9102,653.2373)" fill="#ffffff"/>
<use xlink:href="#font_2_1c" transform="matrix(17,0,0,-17,1245.6249,660.42837)" fill="#131316"/>
<use xlink:href="#font_2_7f" transform="matrix(17,0,0,-17,1259.1994,660.5983)" fill="#131316"/>
<use xlink:href="#font_2_ba" transform="matrix(17,0,0,-17,1273.8533,660.42837)" fill="#131316"/>
<clipPath id="cp5">
<path transform="matrix(1,0,0,-1,0,1080)" d="M 0 1080 L 1920 1080 L 1920 0 L 0 0 Z "/>
</clipPath>
<g clip-path="url(#cp5)">
<path transform="matrix(1,0,0,-1,1418.3988,628.1742)" d="M 0 0 C 0 -23.629 -19.155 -42.783 -42.783 -42.783 C -66.412 -42.783 -85.567 -23.629 -85.567 0 C -85.567 23.629 -66.412 42.783 -42.783 42.783 C -19.155 42.783 0 23.629 0 0 " fill="#131316"/>
<path transform="matrix(1,0,0,-1,1346.719,611.0917)" d="M 0 0 C 4.028 8.132 16.232 13.713 35.815 1.932 C 55.25 -9.76 60.305 -21.669 58.009 -32.107 C 55.361 -44.147 42.051 -47.023 42.051 -47.023 C 41.504 -39.166 33.467 -27.478 22.024 -26.066 C 7.336 -24.253 -6.469 -13.06 0 0 " fill="#ffffff"/>
<path transform="matrix(1,0,0,-1,1348.5087,614.7654)" d="M 0 0 C -.837 -4.132 1.222 -8.037 4.599 -8.721 C 7.976 -9.405 11.392 -6.61 12.229 -2.477 C 13.067 1.655 11.008 5.559 7.63 6.243 C 4.253 6.928 .837 4.132 0 0 " fill="#131316"/>
<path transform="matrix(1,0,0,-1,1349.8292,611.4478)" d="M 0 0 C -.654 -1.87 .054 -3.818 1.582 -4.353 C 3.11 -4.887 4.879 -3.805 5.533 -1.936 C 6.187 -.066 5.479 1.883 3.951 2.417 C 2.423 2.952 .654 1.87 0 0 " fill="#ffffff"/>
</g>
<use xlink:href="#font_0_ad" transform="matrix(56.0746,0,0,-56.0746,1077.6056,456.06468)" fill="#131316"/>
<use xlink:href="#font_0_a4" transform="matrix(56.0746,0,0,-56.0746,1119.4933,466.43846)" fill="#131316"/>
<use xlink:href="#font_0_c1" transform="matrix(56.0746,0,0,-56.0746,1166.5398,456.06468)" fill="#131316"/>
<use xlink:href="#font_0_54" transform="matrix(56.0746,0,0,-56.0746,1211.45,455.5039)" fill="#131316"/>
<use xlink:href="#font_0_a5" transform="matrix(56.0746,0,0,-56.0746,1232.1975,455.5039)" fill="#131316"/>
<use xlink:href="#font_0_2e" transform="matrix(56.0746,0,0,-56.0746,1273.6759,455.5039)" fill="#131316"/>
<clipPath id="cp6">
<path transform="matrix(1,0,0,-1,0,1080)" d="M 0 1080 L 1920 1080 L 1920 0 L 0 0 Z "/>
</clipPath>
<g clip-path="url(#cp6)">
<path transform="matrix(1,0,0,-1,1416.0515,460.7177)" d="M 0 0 C 0 -23.629 -19.155 -42.784 -42.783 -42.784 C -66.412 -42.784 -85.567 -23.629 -85.567 0 C -85.567 23.629 -66.412 42.783 -42.783 42.783 C -19.155 42.783 0 23.629 0 0 " fill="#131316"/>
<path transform="matrix(1,0,0,-1,1344.3717,443.6353)" d="M 0 0 C 4.028 8.132 16.232 13.713 35.815 1.932 C 55.25 -9.76 60.305 -21.669 58.009 -32.107 C 55.361 -44.147 42.051 -47.023 42.051 -47.023 C 41.504 -39.166 33.467 -27.478 22.024 -26.066 C 7.336 -24.253 -6.469 -13.06 0 0 " fill="#ffffff"/>
<path transform="matrix(1,0,0,-1,1346.1614,447.30903)" d="M 0 0 C -.837 -4.132 1.222 -8.037 4.599 -8.721 C 7.976 -9.405 11.392 -6.61 12.229 -2.478 C 13.067 1.655 11.008 5.559 7.63 6.243 C 4.253 6.927 .837 4.132 0 0 " fill="#131316"/>
<path transform="matrix(1,0,0,-1,1347.4819,443.99128)" d="M 0 0 C -.654 -1.87 .054 -3.818 1.582 -4.353 C 3.11 -4.887 4.879 -3.805 5.533 -1.936 C 6.187 -.066 5.479 1.883 3.951 2.417 C 2.423 2.952 .654 1.87 0 0 " fill="#ffffff"/>
</g>
</g>
</g>
</g>
</svg>
